<?xml version="1.0" encoding="UTF-8" standalone="no"?>
<svg
   xmlns:dc="http://purl.org/dc/elements/1.1/"
   xmlns:cc="http://creativecommons.org/ns#"
   xmlns:rdf="http://www.w3.org/1999/02/22-rdf-syntax-ns#"
   xmlns:svg="http://www.w3.org/2000/svg"
   xmlns="http://www.w3.org/2000/svg"
   xmlns:xlink="http://www.w3.org/1999/xlink"
   xmlns:sodipodi="http://sodipodi.sourceforge.net/DTD/sodipodi-0.dtd"
   xmlns:inkscape="http://www.inkscape.org/namespaces/inkscape"
   id="svg2"
   version="1.1"
   inkscape:version="1.0.2 (e86c870879, 2021-01-15)"
   width="512"
   height="512"
   sodipodi:docname="caffeine.svg">
  <sodipodi:namedview
     pagecolor="#ffffff"
     bordercolor="#666666"
     borderopacity="1"
     objecttolerance="10"
     gridtolerance="10"
     guidetolerance="10"
     inkscape:pageopacity="0"
     inkscape:pageshadow="2"
     inkscape:window-width="1920"
     inkscape:window-height="1028"
     id="namedview4"
     showgrid="false"
     inkscape:zoom="0.70710678"
     inkscape:cx="190.12018"
     inkscape:cy="228.30767"
     inkscape:window-x="0"
     inkscape:window-y="24"
     inkscape:window-maximized="1"
     inkscape:current-layer="svg2"
     inkscape:document-rotation="0" />
  <metadata
     id="metadata8">
    <rdf:RDF>
      <cc:Work
         rdf:about="">
        <dc:format>image/svg+xml</dc:format>
        <dc:type
           rdf:resource="http://purl.org/dc/dcmitype/StillImage" />
        <dc:title />
      </cc:Work>
    </rdf:RDF>
  </metadata>
  <defs
     id="defs6">
    <linearGradient
       inkscape:collect="always"
       id="linearGradient1290">
      <stop
         style="stop-color:#1d0901;stop-opacity:0.35576475"
         offset="0"
         id="stop1286" />
      <stop
         style="stop-color:#1d0901;stop-opacity:0;"
         offset="1"
         id="stop1288" />
    </linearGradient>
    <linearGradient
       inkscape:collect="always"
       id="linearGradient1141">
      <stop
         style="stop-color:#000000;stop-opacity:1;"
         offset="0"
         id="stop1137" />
      <stop
         style="stop-color:#000000;stop-opacity:0;"
         offset="1"
         id="stop1139" />
    </linearGradient>
    <linearGradient
       id="linearGradient3887"
       inkscape:collect="always">
      <stop
         id="stop3889"
         offset="0"
         style="stop-color:#008dff;stop-opacity:1;" />
      <stop
         id="stop3891"
         offset="1"
         style="stop-color:#008dff;stop-opacity:0;" />
    </linearGradient>
    <clipPath
       id="clipPath3881"
       clipPathUnits="userSpaceOnUse">
      <path
         transform="translate(-412,-17)"
         d="m 643,152.5 a 103.5,103.5 0 1 1 -207,0 103.5,103.5 0 1 1 207,0 z"
         sodipodi:ry="103.5"
         sodipodi:rx="103.5"
         sodipodi:cy="152.5"
         sodipodi:cx="539.5"
         id="path3883"
         style="fill:#008dff;fill-opacity:1;fill-rule:evenodd;stroke:none"
         sodipodi:type="arc" />
    </clipPath>
    <linearGradient
       y2="122.80152"
       x2="518.54919"
       y1="230.28175"
       x1="621.26202"
       gradientUnits="userSpaceOnUse"
       id="linearGradient3950"
       xlink:href="#linearGradient3887"
       inkscape:collect="always" />
    <linearGradient
       y2="122.80152"
       x2="518.54919"
       y1="230.28175"
       x1="621.26202"
       gradientUnits="userSpaceOnUse"
       id="linearGradient4039"
       xlink:href="#linearGradient3887"
       inkscape:collect="always" />
    <clipPath
       clipPathUnits="userSpaceOnUse"
       id="clipPath4207">
      <path
         transform="matrix(2.1304347,0,0,2.1304347,-892.86953,-62.391327)"
         d="m 643,152.5 a 103.5,103.5 0 1 1 -207,0 103.5,103.5 0 1 1 207,0 z"
         sodipodi:ry="103.5"
         sodipodi:rx="103.5"
         sodipodi:cy="152.5"
         sodipodi:cx="539.5"
         id="path4209"
         style="fill:#f2a558;fill-opacity:1;fill-rule:evenodd;stroke:none"
         sodipodi:type="arc" />
    </clipPath>
    <linearGradient
       inkscape:collect="always"
       xlink:href="#linearGradient3512"
       id="linearGradient3514"
       x1="67.939262"
       y1="36.004204"
       x2="67.939262"
       y2="40.222878"
       gradientUnits="userSpaceOnUse"
       gradientTransform="matrix(4.356238,0,0,4.356238,-34.447525,-25.651871)" />
    <linearGradient
       inkscape:collect="always"
       id="linearGradient3512">
      <stop
         style="stop-color:#f0f0f0;stop-opacity:1;"
         offset="0"
         id="stop3508" />
      <stop
         style="stop-color:#e4e4e4;stop-opacity:1"
         offset="1"
         id="stop3510" />
    </linearGradient>
    <linearGradient
       inkscape:collect="always"
       xlink:href="#linearGradient3504"
       id="linearGradient3506"
       x1="71.546692"
       y1="38.464767"
       x2="71.546692"
       y2="45.7868"
       gradientUnits="userSpaceOnUse"
       gradientTransform="matrix(4.356238,0,0,4.356238,-34.447525,-25.651871)" />
    <linearGradient
       inkscape:collect="always"
       id="linearGradient3504">
      <stop
         style="stop-color:#ffffff;stop-opacity:1;"
         offset="0"
         id="stop3500" />
      <stop
         style="stop-color:#e1e0de;stop-opacity:1"
         offset="1"
         id="stop3502" />
    </linearGradient>
    <linearGradient
       inkscape:collect="always"
       xlink:href="#linearGradient1141"
       id="linearGradient1143"
       x1="294.33969"
       y1="-71.437454"
       x2="415.29892"
       y2="379.98856"
       gradientUnits="userSpaceOnUse" />
    <linearGradient
       inkscape:collect="always"
       xlink:href="#linearGradient1290"
       id="linearGradient1292"
       x1="157.93286"
       y1="-45.117645"
       x2="421.6315"
       y2="411.6218"
       gradientUnits="userSpaceOnUse" />
  </defs>
  <path
     style="fill:#f2a558;fill-opacity:1;fill-rule:evenodd;stroke:none"
     id="path3772"
     transform="matrix(2.1304347,0,0,2.1304347,-892.86953,-62.391327)"
     d="m 643,152.5 a 103.5,103.5 0 1 1 -207,0 103.5,103.5 0 1 1 207,0 z"
     sodipodi:type="arc"
     sodipodi:ry="103.5"
     sodipodi:rx="103.5"
     sodipodi:cy="152.5"
     sodipodi:cx="539.5" />
  <path
     id="path1189"
     style="fill:url(#linearGradient1292);fill-opacity:1;stroke:none;stroke-width:8.71247;stroke-linecap:round;stroke-linejoin:round;stroke-miterlimit:4;stroke-dasharray:none;stroke-opacity:0.992157"
     d="M 183.82422 123.04688 C 178.76234 123.04688 174.56403 126.6127 173.59375 131.37891 C 173.45512 132.05986 173.38281 132.76519 173.38281 133.48828 L 173.38281 147.27148 C 173.38281 147.30748 173.38767 147.34095 173.38867 147.37695 C 171.36767 150.13095 170.22794 153.50878 170.46094 157.17578 L 184.66016 380.56836 C 184.68724 380.99431 184.74455 381.41132 184.81445 381.82422 C 184.82869 381.90833 184.84149 381.99262 184.85742 382.07617 C 184.93184 382.46636 185.02307 382.85054 185.13281 383.22852 C 185.15755 383.31372 185.18449 383.39784 185.21094 383.48242 C 185.32518 383.84779 185.45311 384.20909 185.59766 384.5625 C 185.60952 384.59149 185.61881 384.62148 185.63086 384.65039 C 185.76733 384.97773 185.92368 385.29457 186.08398 385.61133 C 186.26058 385.9603 186.45334 386.30092 186.65625 386.63672 C 186.72295 386.74709 186.78417 386.85982 186.85352 386.96875 C 187.13442 387.41004 187.43361 387.84074 187.75391 388.25781 C 187.80206 388.32052 187.85533 388.37925 187.9043 388.44141 C 188.17927 388.79045 188.46557 389.13171 188.76367 389.46289 C 188.87723 389.58904 188.99481 389.71047 189.11133 389.83398 C 189.26286 389.99462 189.40833 390.16028 189.56445 390.31641 L 280.89453 481.64453 A 220.49999 220.49999 0 0 0 476.96289 266.49609 L 336.56641 126.09961 C 336.33041 125.86361 336.08195 125.6383 335.82422 125.42578 C 334.53571 124.36354 332.98571 123.60438 331.2832 123.25781 C 330.60209 123.11919 329.89708 123.04687 329.17383 123.04688 L 183.82422 123.04688 z " />
  <rect
     ry="10.441791"
     rx="10.441791"
     y="123.0463"
     x="173.38335"
     height="34.666702"
     width="166.23315"
     id="rect3478"
     style="fill:url(#linearGradient3514);fill-opacity:1;stroke:none;stroke-width:19.6031;stroke-linecap:round;stroke-linejoin:round;stroke-miterlimit:4;stroke-dasharray:none;stroke-opacity:1" />
  <path
     sodipodi:nodetypes="sccccccscs"
     inkscape:connector-curvature="0"
     id="rect3456"
     d="m 187.16177,140.46522 c -9.25559,0 -17.28893,7.47335 -16.70173,16.71029 l 14.20028,223.39333 c 0.58722,9.23695 11.62286,15.44871 16.70174,16.70174 36.98071,5.9175 74.94095,6.56232 110.2673,0 4.66118,-0.83533 16.12308,-7.46479 16.71021,-16.70174 l 14.2003,-223.39333 c 0.58721,-9.23694 -7.45463,-16.71029 -16.71021,-16.71029 h -69.33395 z"
     style="fill:#ffffff;fill-opacity:1;stroke:none;stroke-width:8.71247;stroke-linecap:round;stroke-linejoin:round;stroke-miterlimit:4;stroke-dasharray:none;stroke-opacity:0.992157" />
  <path
     inkscape:connector-curvature="0"
     id="path942"
     d="m 328.71392,220.05857 -5.31764,83.59382 c -44.75197,3.40302 -90.92172,3.27249 -133.80112,0.15288 l -5.30925,-83.61078 c 45.19629,3.7879 96.99602,4.04612 144.42801,-0.13598 z"
     style="color:#000000;font-style:normal;font-variant:normal;font-weight:normal;font-stretch:normal;font-size:medium;line-height:normal;font-family:sans-serif;font-variant-ligatures:normal;font-variant-position:normal;font-variant-caps:normal;font-variant-numeric:normal;font-variant-alternates:normal;font-feature-settings:normal;text-indent:0;text-align:start;text-decoration:none;text-decoration-line:none;text-decoration-style:solid;text-decoration-color:#000000;letter-spacing:normal;word-spacing:normal;text-transform:none;writing-mode:lr-tb;direction:ltr;text-orientation:mixed;dominant-baseline:auto;baseline-shift:baseline;text-anchor:start;white-space:normal;shape-padding:0;clip-rule:nonzero;display:inline;overflow:visible;visibility:visible;isolation:auto;mix-blend-mode:normal;color-interpolation:sRGB;color-interpolation-filters:linearRGB;solid-color:#000000;solid-opacity:1;vector-effect:none;fill:#f2a558;fill-opacity:1;fill-rule:nonzero;stroke:none;stroke-width:82.7694;stroke-linecap:butt;stroke-linejoin:miter;stroke-miterlimit:4;stroke-dasharray:none;stroke-dashoffset:0;stroke-opacity:1;color-rendering:auto;image-rendering:auto;shape-rendering:auto;text-rendering:auto;enable-background:accumulate" />
  <path
     id="path1070"
     style="fill:url(#linearGradient1143);fill-opacity:1;stroke:none;stroke-width:19.6031;stroke-linecap:round;stroke-linejoin:round;stroke-miterlimit:4;stroke-dasharray:none;stroke-opacity:1;opacity:0.30386995"
     d="M 162.79102 140.60156 C 162.51625 140.60156 162.24399 140.61558 161.97656 140.64258 C 160.10516 140.83193 158.42847 141.66528 157.17383 142.91992 C 156.81523 143.27851 156.49168 143.6717 156.20703 144.09375 C 155.35307 145.3599 154.85547 146.88846 154.85547 148.53711 L 154.85547 164.33594 C 154.85547 165.98459 155.35315 167.51116 156.20703 168.77734 C 156.49166 169.1994 156.81533 169.59257 157.17383 169.95117 L 408.99023 421.76758 A 220.49999 220.49999 0 0 0 476.99805 262.90234 L 357.03516 142.93945 L 357.01562 142.91992 C 355.58123 141.48552 353.59859 140.60156 351.40039 140.60156 L 162.79102 140.60156 z " />
  <rect
     ry="7.9357696"
     rx="7.9357696"
     y="140.25125"
     x="154.25975"
     height="31.669237"
     width="204.48047"
     id="rect3476"
     style="fill:url(#linearGradient3506);fill-opacity:1;stroke:none;stroke-width:19.6031;stroke-linecap:round;stroke-linejoin:round;stroke-miterlimit:4;stroke-dasharray:none;stroke-opacity:1" />
</svg>
