<?xml version="1.0" encoding="UTF-8" standalone="no"?>
<svg
   xmlns:dc="http://purl.org/dc/elements/1.1/"
   xmlns:cc="http://creativecommons.org/ns#"
   xmlns:rdf="http://www.w3.org/1999/02/22-rdf-syntax-ns#"
   xmlns:svg="http://www.w3.org/2000/svg"
   xmlns="http://www.w3.org/2000/svg"
   xmlns:xlink="http://www.w3.org/1999/xlink"
   xmlns:sodipodi="http://sodipodi.sourceforge.net/DTD/sodipodi-0.dtd"
   xmlns:inkscape="http://www.inkscape.org/namespaces/inkscape"
   width="512"
   height="512"
   viewBox="0 0 135.46666 135.46667"
   version="1.1"
   id="svg951"
   inkscape:version="1.0.2 (e86c870879, 2021-01-15)"
   sodipodi:docname="easytag.svg">
  <defs
     id="defs945">
    <linearGradient
       inkscape:collect="always"
       xlink:href="#linearGradient880"
       id="linearGradient882"
       x1="79.844887"
       y1="164.78447"
       x2="35.072319"
       y2="164.78447"
       gradientUnits="userSpaceOnUse"
       gradientTransform="matrix(0.05247479,0,0,0.05247479,3.7896751,0.40027732)" />
    <linearGradient
       inkscape:collect="always"
       id="linearGradient880">
      <stop
         style="stop-color:#4ae437;stop-opacity:1;"
         offset="0"
         id="stop876" />
      <stop
         style="stop-color:#4ae437;stop-opacity:0;"
         offset="1"
         id="stop878" />
    </linearGradient>
  </defs>
  <sodipodi:namedview
     id="base"
     pagecolor="#ffffff"
     bordercolor="#666666"
     borderopacity="1.0"
     inkscape:pageopacity="0.0"
     inkscape:pageshadow="2"
     inkscape:zoom="0.49497475"
     inkscape:cx="-522.04595"
     inkscape:cy="166.75928"
     inkscape:document-units="mm"
     inkscape:current-layer="layer1"
     inkscape:document-rotation="0"
     showgrid="false"
     units="px"
     inkscape:window-width="1920"
     inkscape:window-height="1028"
     inkscape:window-x="0"
     inkscape:window-y="24"
     inkscape:window-maximized="1" />
  <metadata
     id="metadata948">
    <rdf:RDF>
      <cc:Work
         rdf:about="">
        <dc:format>image/svg+xml</dc:format>
        <dc:type
           rdf:resource="http://purl.org/dc/dcmitype/StillImage" />
        <dc:title></dc:title>
      </cc:Work>
    </rdf:RDF>
  </metadata>
  <g
     inkscape:label="Capa 1"
     inkscape:groupmode="layer"
     id="layer1">
    <g
       id="g1016"
       transform="matrix(7.9986265,0,0,7.9986265,-0.02533216,3.8174414)">
      <path
         id="path859"
         style="fill:#f2c12f;fill-opacity:1;stroke-width:0.0524748;stroke-linecap:round;stroke-linejoin:round"
         d="m 13.133655,3.9900648 c -0.04869,4.526e-4 -0.09742,0.00364 -0.145999,0.00938 0.04506,0.2051435 0.04289,0.424119 -0.01543,0.6417531 L 11.50766,10.107057 c -0.06986,0.164684 -0.168365,0.306075 -0.290207,0.426172 a 0.89972733,0.67361107 15 0 1 -0.100225,0.09591 l -3.02182,2.30723 a 0.89972733,0.67361107 15 0 1 -0.5843191,0.16295 0.67361107,0.89972733 60 0 0 0.8685604,-0.816848 L 8.8849491,8.5142801 a 0.67361107,0.89972733 60 0 0 0.00304,-0.138731 C 8.8892219,8.2044728 8.8589053,8.0348797 8.7918562,7.869029 L 8.42705,7.2371736 7.8243456,7.6961574 C 7.6289516,7.8544964 7.510767,8.0709177 7.4573157,8.3265214 L 6.4912423,11.914139 a 0.89972735,0.67361109 52.709934 0 0 0.9440272,1.239658 l 3.8018435,0.02305 a 0.89972735,0.67361109 52.709934 0 0 0.137998,-0.01456 c 0.16985,-0.02048 0.334222,-0.07211 0.490223,-0.159666 L 16.367259,9.5743141 C 16.963701,9.120111 17.07818,8.2742948 16.623977,7.6778535 L 14.222704,4.5245969 C 13.953021,4.1704595 13.54528,3.9862364 13.133655,3.9900648 Z" />
      <path
         id="path998"
         style="fill:#000000;fill-opacity:0.0813471;stroke:none;stroke-width:0.999999px;stroke-linecap:butt;stroke-linejoin:miter;stroke-opacity:1"
         d="m 47.779297,12.873047 -18.982422,9.191406 3.052734,5.289063 -2.277343,1.734375 c -0.738497,0.598446 -1.184698,1.416751 -1.386719,2.382812 l -3.652344,13.558594 a 3.4005443,2.5459317 52.709934 0 0 3.568359,4.685547 l 14.369141,0.08789 a 3.4005443,2.5459317 52.709934 0 0 0.521485,-0.05469 c 0.641951,-0.0774 1.263905,-0.272595 1.853515,-0.603516 L 61.861328,36.185547 c 2.254269,-1.716673 2.685423,-4.911749 0.96875,-7.166016 l -3.49414,-4.58789 -9.332032,-9.333985 c -0.121626,-0.0076 -0.243195,-0.01871 -0.365234,-0.01758 -0.184025,0.0017 -0.367176,0.01346 -0.550781,0.03516 0.02193,0.09983 0.03289,0.203252 0.04883,0.304688 -0.107308,-0.682863 -0.357305,-1.327909 -0.716797,-1.90625 z"
         transform="scale(0.26458333)" />
      <path
         id="path857"
         style="fill:#4eb518;fill-opacity:1;stroke-width:0.0524748;stroke-linecap:round;stroke-linejoin:round"
         d="M 7.8485068,1.9112958 C 7.2450838,1.9046026 6.6932762,2.3038977 6.5295588,2.9148993 L 6.3400102,3.6223299 8.7918562,7.869029 c 0.067049,0.1658507 0.097366,0.3354438 0.09613,0.5065201 a 0.67361109,0.89972735 60 0 1 -0.00304,0.138731 L 8.3796493,12.282471 A 0.67361109,0.89972735 60 0 1 7.5110889,13.099319 0.89972735,0.67361109 15 0 0 8.095408,12.936372 l 3.02182,-2.30723 a 0.89972735,0.67361109 15 0 0 0.100225,-0.09591 c 0.121842,-0.120097 0.220344,-0.261488 0.290207,-0.426172 L 12.972227,4.6412004 C 13.166262,3.9170502 12.739469,3.1778665 12.015319,2.9838309 L 8.186901,1.9580186 C 8.0737525,1.9277005 7.9602519,1.9125353 7.8485068,1.9112958 Z" />
      <path
         id="path874"
         style="fill:url(#linearGradient882);fill-opacity:1;stroke-width:0.0524748;stroke-linecap:round;stroke-linejoin:round"
         d="M 0.68149605,4.454912 C 0.03224069,4.8297599 -0.18866663,5.6541955 0.18618126,6.3034514 L 3.0155118,11.203995 c 0.1322647,0.213907 0.3319239,0.358615 0.5786789,0.444069 L 7.0302275,13.06157 A 0.67361132,0.89972766 60 0 0 8.3796471,12.282482 L 8.8849568,8.5142815 a 0.67361132,0.89972766 60 0 0 0.00304,-0.1387177 C 8.8892361,8.2044876 8.8588973,8.0348765 8.7918482,7.8690257 L 5.9625177,2.9684817 C 5.5876699,2.3192263 4.7632107,2.0983332 4.1139551,2.4731811 Z" />
      <path
         id="path906"
         style="fill:#000000;fill-opacity:0.0643387;stroke:none;stroke-width:0.19833;stroke-linecap:round;stroke-linejoin:round"
         d="M 18.259766,8.6757812 C 18.06953,8.67016 17.87854,8.6755126 17.6875,8.6914062 c -0.151958,0.012621 -0.303629,0.022322 -0.455078,0.048828 -0.03631,0.00636 -0.07313,0.010412 -0.109375,0.017578 -0.0059,0.00109 -0.01167,0.00272 -0.01758,0.00391 -0.241529,0.048609 -0.480216,0.1141858 -0.716797,0.1992187 -0.0014,4.901e-4 -0.0025,0.00146 -0.0039,0.00195 -0.03733,0.013447 -0.07418,0.028601 -0.111328,0.042969 -0.004,0.00155 -0.0077,0.0043 -0.01172,0.00586 -0.241781,0.094055 -0.48098,0.2020438 -0.712891,0.3359374 L 2.5761719,16.837891 c -2.45387911,1.416748 -3.28979462,4.532447 -1.8730469,6.986328 l 10.693359,18.521484 c 0.111898,0.180983 0.24039,0.344835 0.376954,0.5 0.0012,0.0014 0.0027,0.0025 0.0039,0.0039 0.02774,0.03152 0.05525,0.06329 0.08398,0.09375 6.3e-4,6.68e-4 0.0013,0.0013 0.002,0.002 0.460752,0.486739 1.041838,0.843027 1.720703,1.078126 l 12.986328,5.34375 a 2.5459325,3.4005455 60 0 0 0.53125,0.154296 2.5459325,3.4005455 60 0 0 0.002,0 3.4005443,2.5459317 52.709934 0 0 0.998046,0.19336 l 14.369141,0.08789 a 3.4005443,2.5459317 52.709934 0 0 0.521485,-0.05469 c 0.641951,-0.0774 1.263905,-0.272595 1.853515,-0.603516 L 53.851562,42.285156 24.236328,12.669922 23.962891,13.691406 22.535156,11.21875 c -0.242236,-0.419566 -0.537416,-0.787677 -0.867187,-1.109375 -6.73e-4,-6.32e-4 -0.0013,-0.0013 -0.002,-0.002 C 21.497587,9.9433036 21.319395,9.795584 21.132812,9.6582031 20.885254,9.475829 20.62662,9.3113036 20.353516,9.1777344 c -0.0013,-6.389e-4 -0.0026,-0.00132 -0.0039,-0.00195 -0.01245,-0.00607 -0.02657,-0.0077 -0.03906,-0.013672 C 20.050399,9.0377583 19.78028,8.9379802 19.503906,8.859375 19.409306,8.83249 19.312809,8.818268 19.216797,8.796875 19.017038,8.75228 18.817465,8.715684 18.613281,8.6953125 c -0.116486,-0.011615 -0.232262,-0.015956 -0.349609,-0.019531 -0.0013,-3.99e-5 -0.0026,4.46e-5 -0.0039,0 z M 29.748047,49.001953 a 2.5459317,3.4005443 60 0 1 -0.07422,0.04102 2.5459325,3.4005455 60 0 0 0.02539,-0.01563 2.5459316,3.4005442 60 0 0 0.04883,-0.02539 z"
         transform="scale(0.26458333)" />
      <path
         id="rect833"
         style="fill:#1ba6ff;fill-opacity:1;stroke:none;stroke-width:0.0524748;stroke-linecap:round;stroke-linejoin:round"
         d="M 0.6814961,4.454912 C 0.03224059,4.8297599 -0.18866637,5.6541955 0.18618147,6.3034514 L 3.0155118,11.203995 c 0.1322647,0.213907 0.3319239,0.358615 0.5786789,0.444069 L 7.0302275,13.06157 A 0.67361132,0.89972766 60 0 0 8.3796471,12.282482 L 8.8849568,8.5142815 a 0.67361132,0.89972766 60 0 0 0.00304,-0.1387177 C 8.8892361,8.2044876 8.8588973,8.0348765 8.7918482,7.8690257 L 5.9625177,2.9684819 C 5.5876699,2.3192263 4.7632107,2.098333 4.1139551,2.4731809 Z" />
      <path
         id="path884"
         style="fill:#12a700;fill-opacity:0.205942;stroke-width:0.0524748;stroke-linecap:round;stroke-linejoin:round"
         d="m 6.5519575,2.840707 c -0.00803,0.02441 -0.015663,0.049052 -0.022399,0.074192 L 6.3400102,3.6223299 8.7918562,7.869029 c 0.067049,0.1658507 0.097366,0.3354438 0.09613,0.5065201 a 0.67361107,0.89972733 60 0 1 -0.00304,0.138731 L 8.3796493,12.282471 a 0.67361107,0.89972733 60 0 1 -0.039293,0.155218 0.67361107,0.89972733 60 0 1 -0.00626,0.0163 0.67361107,0.89972733 60 0 1 -0.00664,0.0163 0.67361107,0.89972733 60 0 1 -0.03048,0.06457 0.67361107,0.89972733 60 0 1 -0.00857,0.01597 0.67361107,0.89972733 60 0 1 -0.00442,0.0079 0.67361107,0.89972733 60 0 1 -0.00453,0.0079 0.67361107,0.89972733 60 0 1 -0.029015,0.0471 0.67361107,0.89972733 60 0 1 -0.015701,0.02316 0.67361107,0.89972733 60 0 1 -0.010901,0.01527 0.67361107,0.89972733 60 0 1 -0.011227,0.01516 0.67361107,0.89972733 60 0 1 -0.04195,0.05185 0.67361107,0.89972733 60 0 1 -0.012691,0.01445 0.67361107,0.89972733 60 0 1 -0.026304,0.02839 0.67361107,0.89972733 60 0 1 -0.013613,0.01391 0.67361107,0.89972733 60 0 1 -0.013884,0.01369 0.67361107,0.89972733 60 0 1 -0.014155,0.01353 0.67361107,0.89972733 60 0 1 -0.00721,0.0067 0.67361107,0.89972733 60 0 1 -0.00724,0.0066 0.67361107,0.89972733 60 0 1 -0.014697,0.0131 0.67361107,0.89972733 60 0 1 -2.78e-5,0 0.67361107,0.89972733 60 0 1 -0.014942,0.01285 0.67361107,0.89972733 60 0 1 -0.022941,0.01887 0.67361107,0.89972733 60 0 1 -0.015565,0.01228 0.67361107,0.89972733 60 0 1 -0.00789,0.006 0.67361107,0.89972733 60 0 1 -0.015918,0.01191 0.67361107,0.89972733 60 0 1 -0.016135,0.01166 0.67361107,0.89972733 60 0 1 -2.78e-5,0 0.67361107,0.89972733 60 0 1 -0.016352,0.01142 0.67361107,0.89972733 60 0 1 -0.00827,0.0056 0.67361107,0.89972733 60 0 1 -0.01665,0.01101 0.67361107,0.89972733 60 0 1 -0.00841,0.0054 0.67361107,0.89972733 60 0 1 -0.00846,0.0053 0.67361107,0.89972733 60 0 1 -0.00849,0.0053 0.67361107,0.89972733 60 0 1 -0.017138,0.0103 0.67361107,0.89972733 60 0 1 -0.04355,0.02454 0.67361107,0.89972733 60 0 1 -0.026602,0.01383 0.67361107,0.89972733 60 0 1 -0.00895,0.0044 0.67361107,0.89972733 60 0 1 -0.00895,0.0044 0.67361107,0.89972733 60 0 1 -0.02709,0.01266 0.67361107,0.89972733 60 0 1 -0.00591,0.0027 0.67361107,0.89972733 60 0 0 0.1451851,0.01925 0.89972733,0.67361107 15 0 0 0.1876231,-0.102937 L 8.99244,12.251449 a 0.67361107,0.89972733 60 0 0 0.00778,-0.04569 L 9.5055238,8.4375657 A 0.67361107,0.89972733 60 0 0 9.508588,8.2988348 C 9.5098264,8.1277586 9.47948,7.9581653 9.4124308,7.7923147 L 6.5830879,2.8917684 c -0.010027,-0.017367 -0.020472,-0.034311 -0.03113,-0.051061 z" />
      <path
         id="path905"
         style="fill:#c28a00;fill-opacity:0.213138;stroke-width:0.0524748;stroke-linecap:round;stroke-linejoin:round"
         d="m 13.133655,3.9900648 c -0.04869,4.526e-4 -0.09742,0.00364 -0.145999,0.00938 4.34e-4,0.00197 7.96e-4,0.00396 0.0012,0.00594 0.0016,0.00752 0.0031,0.015062 0.0046,0.022616 0.0013,0.00662 0.0026,0.013256 0.0038,0.019904 0.0014,0.00763 0.0027,0.015255 0.004,0.022914 0.0011,0.00684 0.0021,0.013693 0.0031,0.020555 0.0011,0.00746 0.0022,0.01491 0.0032,0.022399 9.13e-4,0.00699 0.0017,0.014027 0.0025,0.021043 0.0016,0.013832 0.0029,0.027706 0.0041,0.041625 5.9e-4,0.00708 0.0013,0.014155 0.0017,0.02126 4.76e-4,0.00708 7.74e-4,0.014186 0.0011,0.021287 4.01e-4,0.0078 7.91e-4,0.015584 0.0011,0.023402 2.39e-4,0.00703 3.87e-4,0.014075 5.15e-4,0.021124 1.43e-4,0.00785 2.39e-4,0.015718 2.44e-4,0.023592 5e-6,0.00695 -5e-6,0.013894 -1.11e-4,0.020853 -1.25e-4,0.00886 -4.26e-4,0.017746 -7.31e-4,0.026629 -2.03e-4,0.00586 -3.43e-4,0.011726 -6.24e-4,0.017599 -5.91e-4,0.012438 -0.0014,0.024897 -0.0023,0.037367 -3.15e-4,0.00418 -6.22e-4,0.00835 -9.76e-4,0.012528 -0.0011,0.013189 -0.0024,0.026374 -0.0039,0.039591 -5.48e-4,0.0048 -0.0012,0.0096 -0.0018,0.014399 -0.0013,0.010406 -0.0027,0.020821 -0.0042,0.031239 -8.36e-4,0.00561 -0.0018,0.011225 -0.0027,0.01684 -0.0016,0.0097 -0.0033,0.019394 -0.005,0.029097 -10e-4,0.0056 -0.002,0.011189 -0.0031,0.016785 -0.0021,0.010601 -0.0044,0.021205 -0.0067,0.031808 -10e-4,0.00459 -0.0019,0.00918 -0.003,0.013775 -0.0035,0.0152 -0.0073,0.030391 -0.01134,0.045584 L 11.50766,10.107057 c -0.06986,0.164684 -0.168365,0.306075 -0.290207,0.426172 a 0.89972732,0.67361106 15 0 1 -0.100225,0.09591 L 8.90808,12.315876 8.876624,12.550385 a 0.67361107,0.89972733 60 0 1 -0.3969669,0.609728 l 0.1692106,10e-4 2.9653353,-2.264088 a 0.89972733,0.67361107 15 0 0 0.100225,-0.09591 c 0.121841,-0.120096 0.220343,-0.261487 0.290207,-0.426172 l 1.464567,-5.4658558 c 0.0831,-0.3101462 0.05227,-0.6230274 -0.06698,-0.8946741 -0.0884,-0.017023 -0.178386,-0.025217 -0.268567,-0.024378 z" />
      <path
         id="path882"
         style="fill:#000000;fill-opacity:0.161488;stroke:none;stroke-width:0.999999px;stroke-linecap:butt;stroke-linejoin:miter;stroke-opacity:1"
         d="m 34.419735,40.736357 -7.853329,8.533174 c 0.477418,0.276868 1.000859,0.441946 1.535156,0.445313 l 14.369141,0.08789 c 0.179943,0.0011 0.354513,-0.01704 0.521485,-0.05469 0.170692,-0.02058 0.336346,-0.07181 0.503906,-0.109375 z"
         transform="scale(0.26458333)"
         sodipodi:nodetypes="ccccccc" />
      <circle
         style="fill:#e9e9e9;fill-opacity:1;stroke:none;stroke-width:1.17787;stroke-linecap:round;stroke-linejoin:round;stroke-miterlimit:4;stroke-dasharray:none;stroke-opacity:1"
         id="path913"
         cx="7.7185168"
         cy="12.251811"
         r="2.0231118" />
    </g>
  </g>
</svg>
