<?xml version="1.0" encoding="UTF-8" standalone="no"?>
<svg
   xmlns:dc="http://purl.org/dc/elements/1.1/"
   xmlns:cc="http://creativecommons.org/ns#"
   xmlns:rdf="http://www.w3.org/1999/02/22-rdf-syntax-ns#"
   xmlns:svg="http://www.w3.org/2000/svg"
   xmlns="http://www.w3.org/2000/svg"
   xmlns:xlink="http://www.w3.org/1999/xlink"
   xmlns:sodipodi="http://sodipodi.sourceforge.net/DTD/sodipodi-0.dtd"
   xmlns:inkscape="http://www.inkscape.org/namespaces/inkscape"
   height="512"
   width="512"
   version="1.1"
   id="svg42"
   sodipodi:docname="com.github.allen-b1.news.svg"
   inkscape:version="1.0.2 (e86c870879, 2021-01-15)">
  <metadata
     id="metadata48">
    <rdf:RDF>
      <cc:Work
         rdf:about="">
        <dc:format>image/svg+xml</dc:format>
        <dc:type
           rdf:resource="http://purl.org/dc/dcmitype/StillImage" />
        <dc:title></dc:title>
      </cc:Work>
    </rdf:RDF>
  </metadata>
  <defs
     id="defs46">
    <linearGradient
       id="SVGID_8_"
       gradientUnits="userSpaceOnUse"
       x1="82.157997"
       x2="266.905"
       xlink:href="#lg2"
       y1="238.661"
       y2="336.224"
       gradientTransform="matrix(1.0039216,0,0,1.0039216,24.224985,-7.1986058)" />
    <linearGradient
       id="lg2">
      <stop
         offset="0"
         stop-color="#18cffc"
         id="stop13" />
      <stop
         offset="1"
         stop-color="#4a98f7"
         id="stop15" />
    </linearGradient>
  </defs>
  <sodipodi:namedview
     pagecolor="#ffffff"
     bordercolor="#666666"
     borderopacity="1"
     objecttolerance="10"
     gridtolerance="10"
     guidetolerance="10"
     inkscape:pageopacity="0"
     inkscape:pageshadow="2"
     inkscape:window-width="1920"
     inkscape:window-height="1024"
     id="namedview44"
     showgrid="false"
     inkscape:zoom="1.2540097"
     inkscape:cx="132.92654"
     inkscape:cy="378.75964"
     inkscape:window-x="0"
     inkscape:window-y="24"
     inkscape:window-maximized="1"
     inkscape:current-layer="svg42"
     inkscape:document-rotation="0"
     showguides="false" />
  <clipPath
     id="a">
    <rect
       height="417"
       ry="60.628601"
       width="416"
       x="51"
       y="54"
       id="rect2" />
  </clipPath>
  <linearGradient
     id="b"
     gradientUnits="userSpaceOnUse"
     x1="-241"
     x2="454"
     y1="73"
     y2="454"
     gradientTransform="translate(0,-142.67604)">
    <stop
       offset="0"
       id="stop5" />
    <stop
       offset="1"
       stop-opacity="0"
       id="stop7" />
  </linearGradient>
  <rect
     style="opacity:1;fill:#67ce66;fill-opacity:1;stroke:none;stroke-width:8;stroke-linecap:square;stroke-linejoin:round;stroke-miterlimit:4;stroke-dasharray:none;stroke-opacity:1"
     id="rect858"
     width="253.99416"
     height="242.48888"
     x="190.37784"
     y="146.63295"
     rx="13.144875"
     ry="13.144875" />
  <g
     fill="#96a1ae"
     fill-opacity=".536946"
     id="g40" />
  <rect
     style="opacity:1;fill:#11a1f4;fill-opacity:1;stroke:none;stroke-width:8;stroke-linecap:square;stroke-linejoin:round;stroke-miterlimit:4;stroke-dasharray:none;stroke-opacity:1"
     id="rect856"
     width="294.18683"
     height="307.66931"
     x="118.7291"
     y="114.57802"
     rx="19.486124"
     ry="19.486124" />
  <rect
     style="opacity:1;fill:#f46811;fill-opacity:1;stroke:none;stroke-width:8;stroke-linecap:square;stroke-linejoin:round;stroke-miterlimit:4;stroke-dasharray:none;stroke-opacity:1"
     id="rect854"
     width="321.9776"
     height="373.71118"
     x="49.12368"
     y="79.36232"
     rx="25.291307"
     ry="25.291307" />
  <rect
     style="opacity:1;fill:#ececec;fill-opacity:1;stroke:none;stroke-width:8;stroke-linecap:square;stroke-linejoin:round;stroke-miterlimit:4;stroke-dasharray:none;stroke-opacity:1"
     id="rect857"
     width="288.49081"
     height="411.42889"
     x="25.202307"
     y="57.341114"
     rx="30.434893"
     ry="30.434893" />
  <path
     d="m 79.979779,351.41121 c 0,-0.58027 0.189741,-1.64142 0.580267,-3.19147 L 134.53187,171.21832 c 1.54504,-4.83288 5.07684,-8.56044 10.59037,-11.17164 5.51254,-2.6112 11.84628,-3.9173 19.00524,-3.9173 7.15495,0 13.49371,1.3061 19.00625,3.9173 5.51253,2.61221 9.04031,6.33876 10.59237,11.17164 l 54.25996,177.00142 c 0.3855,1.55005 0.58027,2.6112 0.58027,3.19147 0,5.03266 -3.14529,9.38566 -9.42984,13.058 -6.28857,3.67737 -12.81707,5.51254 -19.58651,5.51254 -8.3195,0 -13.25277,-2.80195 -14.79781,-8.41487 l -9.86654,-36.27069 h -61.22416 l -9.86654,36.27069 c -1.55005,5.61292 -6.48332,8.41487 -14.79881,8.41487 -6.77245,0 -13.301956,-1.83617 -19.586506,-5.51254 -6.28756,-3.67334 -9.429835,-8.02534 -9.429835,-13.058 z m 62.966971,-60.93503 h 42.36348 l -21.18275,-77.76477 z"
     fill="url(#SVGID_8_)"
     id="path79"
     style="fill:#777777;fill-opacity:1;stroke-width:1.00392" />
</svg>
