<?xml version="1.0" encoding="UTF-8" standalone="no"?>
<svg
   xmlns:dc="http://purl.org/dc/elements/1.1/"
   xmlns:cc="http://creativecommons.org/ns#"
   xmlns:rdf="http://www.w3.org/1999/02/22-rdf-syntax-ns#"
   xmlns:svg="http://www.w3.org/2000/svg"
   xmlns="http://www.w3.org/2000/svg"
   xmlns:sodipodi="http://sodipodi.sourceforge.net/DTD/sodipodi-0.dtd"
   xmlns:inkscape="http://www.inkscape.org/namespaces/inkscape"
   width="128"
   height="128"
   viewBox="0 0 33.866666 33.866668"
   version="1.1"
   id="svg8"
   inkscape:version="1.0.2 (e86c870879, 2021-01-15)"
   sodipodi:docname="cinelerra.svg">
  <defs
     id="defs2">
    <filter
       inkscape:collect="always"
       style="color-interpolation-filters:sRGB"
       id="filter4172"
       x="-0.0504"
       width="1.1008"
       y="-0.0504"
       height="1.1008">
      <feGaussianBlur
         inkscape:collect="always"
         stdDeviation="3.5941582"
         id="feGaussianBlur4174" />
    </filter>
  </defs>
  <sodipodi:namedview
     id="base"
     pagecolor="#ffffff"
     bordercolor="#666666"
     borderopacity="1.0"
     inkscape:pageopacity="0.0"
     inkscape:pageshadow="2"
     inkscape:zoom="3.959798"
     inkscape:cx="88.890623"
     inkscape:cy="82.175913"
     inkscape:document-units="mm"
     inkscape:current-layer="layer1"
     inkscape:document-rotation="0"
     showgrid="false"
     units="px"
     inkscape:window-width="1920"
     inkscape:window-height="1028"
     inkscape:window-x="0"
     inkscape:window-y="24"
     inkscape:window-maximized="1" />
  <metadata
     id="metadata5">
    <rdf:RDF>
      <cc:Work
         rdf:about="">
        <dc:format>image/svg+xml</dc:format>
        <dc:type
           rdf:resource="http://purl.org/dc/dcmitype/StillImage" />
        <dc:title />
      </cc:Work>
    </rdf:RDF>
  </metadata>
  <g
     inkscape:label="Capa 1"
     inkscape:groupmode="layer"
     id="layer1">
    <g
       id="g1004"
       transform="matrix(1.0645258,0,0,1.0645258,-0.00454213,-2.2055438)">
      <rect
         style="opacity:0.996;fill:#717c88;fill-opacity:0.99607843;stroke-width:0.0529167"
         id="rect835"
         width="11.139425"
         height="6.7505116"
         x="17.375689"
         y="21.509214"
         rx="3.3752558"
         ry="3.3752558" />
      <ellipse
         style="opacity:0.996;fill:#21bcfc;fill-opacity:0.99215686;stroke:none;stroke-width:2.28702;stroke-linecap:round;stroke-linejoin:round;stroke-miterlimit:4;stroke-dasharray:none;stroke-opacity:1"
         id="path868"
         cx="30.342716"
         cy="24.88447"
         rx="0.99700791"
         ry="4.8520179" />
      <g
         id="g861"
         inkscape:transform-center-x="-1.0029552"
         style="opacity:0.996;fill:#787d82;fill-opacity:0.996078"
         transform="translate(-2.9330326,4.5949797)">
        <path
           id="path863"
           style="color:#000000;font-style:normal;font-variant:normal;font-weight:normal;font-stretch:normal;font-size:medium;line-height:normal;font-family:sans-serif;font-variant-ligatures:normal;font-variant-position:normal;font-variant-caps:normal;font-variant-numeric:normal;font-variant-alternates:normal;font-variant-east-asian:normal;font-feature-settings:normal;font-variation-settings:normal;text-indent:0;text-align:start;text-decoration:none;text-decoration-line:none;text-decoration-style:solid;text-decoration-color:#000000;letter-spacing:normal;word-spacing:normal;text-transform:none;writing-mode:lr-tb;direction:ltr;text-orientation:mixed;dominant-baseline:auto;baseline-shift:baseline;text-anchor:start;white-space:normal;shape-padding:0;shape-margin:0;inline-size:0;clip-rule:nonzero;display:inline;overflow:visible;visibility:visible;isolation:auto;mix-blend-mode:normal;color-interpolation:sRGB;color-interpolation-filters:linearRGB;solid-color:#000000;solid-opacity:1;vector-effect:none;fill:#787d82;fill-opacity:0.996078;fill-rule:nonzero;stroke:none;stroke-width:2.57731;stroke-linecap:round;stroke-linejoin:round;stroke-miterlimit:4;stroke-dasharray:none;stroke-dashoffset:0;stroke-opacity:1;color-rendering:auto;image-rendering:auto;shape-rendering:auto;text-rendering:auto;enable-background:accumulate;stop-color:#000000;stop-opacity:1"
           d="m 31.968157,14.524447 a 1.2887858,1.2887858 0 0 1 1.301232,1.288579 v 8.952122 a 1.2887858,1.2887858 0 0 1 -2.015776,1.064825 l -6.561427,-4.477726 a 1.2887858,1.2887858 0 0 1 0,-2.12632 L 31.253613,14.7482 a 1.2887858,1.2887858 0 0 1 0.714544,-0.223753 z" />
        <path
           id="path884"
           style="color:#000000;font-style:normal;font-variant:normal;font-weight:normal;font-stretch:normal;font-size:medium;line-height:normal;font-family:sans-serif;font-variant-ligatures:normal;font-variant-position:normal;font-variant-caps:normal;font-variant-numeric:normal;font-variant-alternates:normal;font-variant-east-asian:normal;font-feature-settings:normal;font-variation-settings:normal;text-indent:0;text-align:start;text-decoration:none;text-decoration-line:none;text-decoration-style:solid;text-decoration-color:#000000;letter-spacing:normal;word-spacing:normal;text-transform:none;writing-mode:lr-tb;direction:ltr;text-orientation:mixed;dominant-baseline:auto;baseline-shift:baseline;text-anchor:start;white-space:normal;shape-padding:0;shape-margin:0;inline-size:0;clip-rule:nonzero;display:inline;overflow:visible;visibility:visible;isolation:auto;mix-blend-mode:normal;color-interpolation:sRGB;color-interpolation-filters:linearRGB;solid-color:#000000;solid-opacity:1;vector-effect:none;fill:#787d82;fill-opacity:0.996078;fill-rule:nonzero;stroke:none;stroke-width:2.57731;stroke-linecap:round;stroke-linejoin:round;stroke-miterlimit:4;stroke-dasharray:none;stroke-dashoffset:0;stroke-opacity:1;color-rendering:auto;image-rendering:auto;shape-rendering:auto;text-rendering:auto;enable-background:accumulate;stop-color:#000000;stop-opacity:1"
           d="m 31.968157,14.524447 a 1.2887858,1.2887858 0 0 1 1.301232,1.288579 v 8.952122 a 1.2887858,1.2887858 0 0 1 -2.015776,1.064825 l -6.561427,-4.477726 a 1.2887858,1.2887858 0 0 1 0,-2.12632 L 31.253613,14.7482 a 1.2887858,1.2887858 0 0 1 0.714544,-0.223753 z" />
        <path
           id="path886"
           style="color:#000000;font-style:normal;font-variant:normal;font-weight:normal;font-stretch:normal;font-size:medium;line-height:normal;font-family:sans-serif;font-variant-ligatures:normal;font-variant-position:normal;font-variant-caps:normal;font-variant-numeric:normal;font-variant-alternates:normal;font-variant-east-asian:normal;font-feature-settings:normal;font-variation-settings:normal;text-indent:0;text-align:start;text-decoration:none;text-decoration-line:none;text-decoration-style:solid;text-decoration-color:#000000;letter-spacing:normal;word-spacing:normal;text-transform:none;writing-mode:lr-tb;direction:ltr;text-orientation:mixed;dominant-baseline:auto;baseline-shift:baseline;text-anchor:start;white-space:normal;shape-padding:0;shape-margin:0;inline-size:0;clip-rule:nonzero;display:inline;overflow:visible;visibility:visible;isolation:auto;mix-blend-mode:normal;color-interpolation:sRGB;color-interpolation-filters:linearRGB;solid-color:#000000;solid-opacity:1;vector-effect:none;fill:#717c88;fill-opacity:1;fill-rule:nonzero;stroke:none;stroke-width:2.57731;stroke-linecap:round;stroke-linejoin:round;stroke-miterlimit:4;stroke-dasharray:none;stroke-dashoffset:0;stroke-opacity:1;color-rendering:auto;image-rendering:auto;shape-rendering:auto;text-rendering:auto;enable-background:accumulate;stop-color:#000000;stop-opacity:1"
           d="m 31.968157,14.524447 a 1.2887858,1.2887858 0 0 1 1.301232,1.288579 v 8.952122 a 1.2887858,1.2887858 0 0 1 -2.015776,1.064825 l -6.561427,-4.477726 a 1.2887858,1.2887858 0 0 1 0,-2.12632 L 31.253613,14.7482 a 1.2887858,1.2887858 0 0 1 0.714544,-0.223753 z" />
      </g>
      <rect
         style="opacity:0.996;fill:#000000;fill-opacity:0.195178;stroke-width:0.0529167"
         id="rect874"
         width="6.1339207"
         height="6.7505112"
         x="17.375689"
         y="21.509214"
         rx="0"
         ry="0" />
      <path
         id="path880"
         style="color:#000000;font-style:normal;font-variant:normal;font-weight:normal;font-stretch:normal;font-size:medium;line-height:normal;font-family:sans-serif;font-variant-ligatures:normal;font-variant-position:normal;font-variant-caps:normal;font-variant-numeric:normal;font-variant-alternates:normal;font-variant-east-asian:normal;font-feature-settings:normal;font-variation-settings:normal;text-indent:0;text-align:start;text-decoration:none;text-decoration-line:none;text-decoration-style:solid;text-decoration-color:#000000;letter-spacing:normal;word-spacing:normal;text-transform:none;writing-mode:lr-tb;direction:ltr;text-orientation:mixed;dominant-baseline:auto;baseline-shift:baseline;text-anchor:start;white-space:normal;shape-padding:0;shape-margin:0;inline-size:0;clip-rule:nonzero;display:inline;overflow:visible;visibility:visible;opacity:1;isolation:auto;mix-blend-mode:normal;color-interpolation:sRGB;color-interpolation-filters:linearRGB;solid-color:#000000;solid-opacity:1;vector-effect:none;fill:#e1f4fc;fill-opacity:0.9921568;fill-rule:nonzero;stroke:none;stroke-width:1;stroke-linecap:round;stroke-linejoin:round;stroke-miterlimit:4;stroke-dasharray:none;stroke-dashoffset:0;stroke-opacity:1;paint-order:stroke markers fill;color-rendering:auto;image-rendering:auto;shape-rendering:auto;text-rendering:auto;enable-background:accumulate;stop-color:#000000;stop-opacity:1"
         d="m 30.059664,19.61074 -4.69067,2.708362 H 21.11344 a 0.5,0.5 0 0 0 -0.500228,0.499711 0.5,0.5 0 0 0 0.500228,0.500228 h 4.388362 a 0.50005001,0.50005001 0 0 0 0.250114,-0.06666 l 4.584216,-2.646866 v -0.197404 a 1.2887857,1.2887857 0 0 0 -0.276468,-0.797368 z" />
      <g
         id="g911"
         transform="translate(-0.2149094)">
        <rect
           style="opacity:0.996;fill:#4e565e;fill-opacity:0.99607843;stroke:none;stroke-width:2;stroke-linecap:round;stroke-linejoin:round;stroke-miterlimit:4;stroke-dasharray:none;stroke-opacity:1;paint-order:stroke markers fill"
           id="rect905"
           width="12.125582"
           height="3.9966533"
           x="7.0185375"
           y="14.191136"
           rx="0"
           ry="0" />
        <rect
           style="opacity:0.996;fill:#717c88;fill-opacity:1;stroke:none;stroke-width:2.41904;stroke-linecap:round;stroke-linejoin:round;stroke-miterlimit:4;stroke-dasharray:none;stroke-opacity:1;paint-order:stroke markers fill"
           id="rect907"
           width="14.666162"
           height="5.2728906"
           x="5.7482481"
           y="10.887429"
           rx="1.2110935"
           ry="1.2110935" />
      </g>
      <rect
         style="opacity:0.996;fill:#717c88;fill-opacity:1;stroke-width:0.0529167"
         id="rect833"
         width="20.35787"
         height="14.896889"
         x="2.4830647"
         y="17.436024"
         rx="1.7778566"
         ry="1.7778566" />
      <path
         style="fill:none;stroke:#ddf6fd;stroke-width:2;stroke-linecap:round;stroke-linejoin:round;stroke-miterlimit:4;stroke-dasharray:none;stroke-opacity:0.31345001"
         d="M 4.7581822,29.454592 V 19.341006 l 14.5413418,0.155465"
         id="path899"
         sodipodi:nodetypes="ccc" />
      <circle
         style="opacity:0.996;fill:#21bcfc;fill-opacity:0.9941175;stroke:#7f8489;stroke-width:2.24309;stroke-linecap:round;stroke-linejoin:round;stroke-miterlimit:4;stroke-dasharray:none;stroke-opacity:1;paint-order:stroke markers fill"
         id="path901"
         cx="18.117817"
         cy="8.7409945"
         r="5.5573378" />
      <circle
         style="opacity:0.996;fill:#21bcfc;fill-opacity:0.9941175;stroke:#7f8489;stroke-width:2.24309;stroke-linecap:round;stroke-linejoin:round;stroke-miterlimit:4;stroke-dasharray:none;stroke-opacity:1;paint-order:stroke markers fill"
         id="circle903"
         cx="7.4043288"
         cy="10.682235"
         r="3.6160967" />
      <path
         id="path4162"
         d="M 94.20215,8.6259797 A 85.575089,85.575089 0 0 0 50.03418,21.00489 L 14.13184,10.16114 22.80176,47.14161 A 85.575089,85.575089 0 0 0 8.6259797,94.2002 85.575089,85.575089 0 0 0 94.20215,179.77637 85.575089,85.575089 0 0 0 179.77637,94.2002 85.575089,85.575089 0 0 0 94.20215,8.6259797 Z"
         style="fill:#000000;fill-opacity:0.181319;fill-rule:evenodd;stroke:none;filter:url(#filter4172)"
         inkscape:connector-curvature="0"
         transform="matrix(-0.06507576,0,0,0.06507576,12.330819,21.920398)" />
      <path
         style="fill:#7d4cfc;fill-opacity:0.9921568;fill-rule:evenodd;stroke:none;stroke-width:0.0650757"
         d="m 5.8100879,22.611892 a 5.5688643,5.5688643 0 0 1 2.8742642,0.805566 l 2.3363719,-0.705664 -0.564201,2.406532 A 5.5688643,5.5688643 0 0 1 11.379022,28.1807 5.5688643,5.5688643 0 0 1 5.8100879,33.749635 5.5688643,5.5688643 0 0 1 0.24127983,28.1807 5.5688643,5.5688643 0 0 1 5.8100879,22.611892 Z"
         id="path3904" />
      <path
         style="fill:#ffffff;fill-opacity:1;fill-rule:nonzero;stroke:none;stroke-width:0.0650757"
         d="m 8.207923,25.081176 c 0,1.922989 -0.4785933,2.604939 -1.2129726,3.071385 l 1.2463595,0.968156 c 0.2503417,0.159888 0.4491355,0.385305 0.5452804,0.667691 l 0.066772,0.100157 -0.055638,-0.0111 c 0.029196,0.107183 0.055638,0.208765 0.055638,0.322714 0,0.708293 -0.5718103,1.290879 -1.2797447,1.290879 -0.7082873,0 -1.2908714,-0.582941 -1.2908714,-1.290879 0,-0.284879 0.098906,-0.532637 0.2559492,-0.745587 -0.3066518,-0.247245 -0.603447,-0.419819 -0.8902578,-0.578669 -0.2881518,0.159261 -0.5820224,0.330385 -0.8902554,0.578669 0.1570382,0.211525 0.2448209,0.460708 0.2448209,0.745587 0,0.709363 -0.5714557,1.290879 -1.2797455,1.290879 -0.7093596,0 -1.2797472,-0.581163 -1.2797472,-1.290879 0,-0.115373 0.024949,-0.216955 0.044537,-0.322714 l -0.044537,0.0111 0.066772,-0.100157 c 0.096143,-0.280962 0.2945818,-0.507803 0.545279,-0.667691 L 4.2907941,28.152561 C 3.5564148,27.686275 3.0778157,27.004165 3.0778157,25.081176 l 2.5706195,2.014205 z m -0.6343077,4.484668 c -0.351827,0 -0.6454354,0.282479 -0.6454354,0.634311 0,0.351829 0.2936084,0.645437 0.6454354,0.645437 0.351831,0 0.6343077,-0.293608 0.6343077,-0.645437 0,-0.351832 -0.2824767,-0.634311 -0.6343077,-0.634311 z m -3.8503609,0 c -0.3532571,0 -0.6454387,0.282479 -0.6454387,0.634311 0,0.353252 0.2921816,0.645437 0.6454387,0.645437 0.3518277,0 0.6454378,-0.292185 0.6454378,-0.645437 0,-0.351832 -0.2936101,-0.634311 -0.6454378,-0.634311 z"
         id="path64"
         inkscape:connector-curvature="0" />
      <circle
         style="opacity:0.996;fill:#f2f2f2;fill-opacity:0.388083;stroke:none;stroke-width:2;stroke-linecap:round;stroke-linejoin:round;stroke-miterlimit:4;stroke-dasharray:none;stroke-opacity:1;paint-order:stroke markers fill"
         id="path931"
         cx="15.032017"
         cy="7.1229558"
         r="1.7133505" />
      <circle
         style="opacity:0.996;fill:#f2f2f2;fill-opacity:0.388083;stroke:none;stroke-width:1.3655;stroke-linecap:round;stroke-linejoin:round;stroke-miterlimit:4;stroke-dasharray:none;stroke-opacity:1;paint-order:stroke markers fill"
         id="circle933"
         cx="6.0277386"
         cy="9.6169748"
         r="1.1697906" />
    </g>
  </g>
</svg>
