<?xml version="1.0" encoding="UTF-8" standalone="no"?>
<svg
   xmlns:dc="http://purl.org/dc/elements/1.1/"
   xmlns:cc="http://creativecommons.org/ns#"
   xmlns:rdf="http://www.w3.org/1999/02/22-rdf-syntax-ns#"
   xmlns:svg="http://www.w3.org/2000/svg"
   xmlns="http://www.w3.org/2000/svg"
   xmlns:xlink="http://www.w3.org/1999/xlink"
   xmlns:sodipodi="http://sodipodi.sourceforge.net/DTD/sodipodi-0.dtd"
   xmlns:inkscape="http://www.inkscape.org/namespaces/inkscape"
   height="512"
   width="512"
   version="1.1"
   id="svg42"
   sodipodi:docname="color.svg"
   inkscape:version="1.0.2 (e86c870879, 2021-01-15)">
  <metadata
     id="metadata48">
    <rdf:RDF>
      <cc:Work
         rdf:about="">
        <dc:format>image/svg+xml</dc:format>
        <dc:type
           rdf:resource="http://purl.org/dc/dcmitype/StillImage" />
        <dc:title></dc:title>
      </cc:Work>
    </rdf:RDF>
  </metadata>
  <defs
     id="defs46">
    <linearGradient
       inkscape:collect="always"
       id="linearGradient860">
      <stop
         style="stop-color:#29a7f8;stop-opacity:1"
         offset="0"
         id="stop856" />
      <stop
         style="stop-color:#29a7f8;stop-opacity:1"
         offset="0.13150117"
         id="stop866" />
      <stop
         style="stop-color:#ee561c;stop-opacity:1"
         offset="0.84487349"
         id="stop868" />
      <stop
         style="stop-color:#ee561c;stop-opacity:1"
         offset="1"
         id="stop858" />
    </linearGradient>
    <linearGradient
       inkscape:collect="always"
       xlink:href="#linearGradient860"
       id="linearGradient864"
       gradientUnits="userSpaceOnUse"
       x1="269.77374"
       y1="-62.213764"
       x2="269.77374"
       y2="-451.97366" />
  </defs>
  <sodipodi:namedview
     pagecolor="#ffffff"
     bordercolor="#666666"
     borderopacity="1"
     objecttolerance="10"
     gridtolerance="10"
     guidetolerance="10"
     inkscape:pageopacity="0"
     inkscape:pageshadow="2"
     inkscape:window-width="1920"
     inkscape:window-height="1024"
     id="namedview44"
     showgrid="false"
     inkscape:zoom="0.62700485"
     inkscape:cx="-155.08953"
     inkscape:cy="582.89939"
     inkscape:window-x="0"
     inkscape:window-y="24"
     inkscape:window-maximized="1"
     inkscape:current-layer="svg42"
     inkscape:document-rotation="0"
     showguides="false" />
  <clipPath
     id="a">
    <rect
       height="417"
       ry="60.628601"
       width="416"
       x="51"
       y="54"
       id="rect2" />
  </clipPath>
  <linearGradient
     id="b"
     gradientUnits="userSpaceOnUse"
     x1="-241"
     x2="454"
     y1="73"
     y2="454"
     gradientTransform="translate(0,-142.67604)">
    <stop
       offset="0"
       id="stop5" />
    <stop
       offset="1"
       stop-opacity="0"
       id="stop7" />
  </linearGradient>
  <rect
     style="opacity:1;fill:url(#linearGradient864);fill-opacity:1;stroke:none;stroke-width:8;stroke-linecap:square;stroke-linejoin:round;stroke-miterlimit:4;stroke-dasharray:none;stroke-opacity:1"
     id="rect854"
     width="364.32932"
     height="386.42068"
     x="78.458565"
     y="-450.22919"
     rx="30.434893"
     ry="30.434893"
     transform="rotate(90)" />
  <g
     fill="#96a1ae"
     fill-opacity=".536946"
     id="g40" />
  <rect
     style="opacity:1;fill:#e4e2df;fill-opacity:1;stroke:none;stroke-width:8;stroke-linecap:square;stroke-linejoin:round;stroke-miterlimit:4;stroke-dasharray:none;stroke-opacity:1"
     id="rect857"
     width="467.88678"
     height="289.621"
     x="26.462215"
     y="-401.82935"
     rx="30.434893"
     ry="30.434893"
     transform="rotate(90)" />
  <path
     style="fill:#ffffff;fill-opacity:1;stroke-width:3.97119"
     d="m 262.96238,379.48999 c -61.77235,0 -111.19135,-49.4189 -111.19135,-111.19112 0,-61.77222 47.82692,-111.19112 109.59981,-111.19112 9.88382,0 18.53173,8.64847 18.53173,18.53168 0,4.94184 -1.23544,8.64842 -4.94188,12.35442 -2.46844,3.70826 -3.34532,9.00118 -3.34532,13.94365 0,9.88377 8.64846,18.53163 18.53172,18.53163 h 22.23827 c 34.5916,0 61.77235,25.59596 61.77235,60.18753 0,54.36131 -49.41901,98.83777 -111.19136,98.83777 z"
     id="path4" />
  <path
     style="fill:#000000;stroke-width:4.73532;fill-opacity:0.29051527"
     d="m 194.53945,253.01855 c -10.10201,0 -18.94128,8.83927 -18.94128,18.94127 0,10.102 8.83927,18.94128 18.94128,18.94128 10.102,0 18.94127,-8.83928 18.94127,-18.94128 0,-10.102 -8.83927,-18.94127 -18.94127,-18.94127 z"
     id="path8" />
  <path
     style="fill:#000000;stroke-width:4.73532;fill-opacity:0.29051527"
     d="m 301.72348,308.62263 c -10.102,0 -18.9413,8.83929 -18.9413,18.94129 0,10.10199 8.8393,18.94126 18.9413,18.94126 10.10198,0 18.94125,-8.83927 18.94125,-18.94126 0,-10.102 -8.83927,-18.94129 -18.94125,-18.94129 z"
     id="path10" />
  <path
     style="fill:#000000;stroke-width:4.73532;fill-opacity:0.29051527"
     d="m 322.66553,249.31403 c -10.102,0 -18.94128,8.83927 -18.94128,18.94127 0,10.102 8.83928,18.94128 18.94128,18.94128 10.102,0 18.94127,-8.83928 18.94127,-18.94128 0,-10.102 -8.83927,-18.94127 -18.94127,-18.94127 z"
     id="path12" />
  <path
     style="fill:#000000;fill-opacity:0.29051527;stroke-width:4.73532"
     d="m 230.49767,304.04937 c -10.102,0 -18.94129,8.83928 -18.94129,18.94129 0,10.10199 8.83929,18.94126 18.94129,18.94126 10.10198,0 18.94126,-8.83927 18.94126,-18.94126 0,-10.10201 -8.83928,-18.94129 -18.94126,-18.94129 z"
     id="path888" />
</svg>
