<?xml version="1.0" encoding="UTF-8" standalone="no"?>
<svg
   xmlns:dc="http://purl.org/dc/elements/1.1/"
   xmlns:cc="http://creativecommons.org/ns#"
   xmlns:rdf="http://www.w3.org/1999/02/22-rdf-syntax-ns#"
   xmlns:svg="http://www.w3.org/2000/svg"
   xmlns="http://www.w3.org/2000/svg"
   xmlns:xlink="http://www.w3.org/1999/xlink"
   xmlns:sodipodi="http://sodipodi.sourceforge.net/DTD/sodipodi-0.dtd"
   xmlns:inkscape="http://www.inkscape.org/namespaces/inkscape"
   height="512"
   width="512"
   version="1.1"
   id="svg42"
   sodipodi:docname="rss.svg"
   inkscape:version="1.0.2 (e86c870879, 2021-01-15)">
  <metadata
     id="metadata48">
    <rdf:RDF>
      <cc:Work
         rdf:about="">
        <dc:format>image/svg+xml</dc:format>
        <dc:type
           rdf:resource="http://purl.org/dc/dcmitype/StillImage" />
        <dc:title></dc:title>
      </cc:Work>
    </rdf:RDF>
  </metadata>
  <defs
     id="defs46">
    <linearGradient
       inkscape:collect="always"
       id="linearGradient1286">
      <stop
         style="stop-color:#000000;stop-opacity:1;"
         offset="0"
         id="stop1282" />
      <stop
         style="stop-color:#000000;stop-opacity:0;"
         offset="1"
         id="stop1284" />
    </linearGradient>
    <linearGradient
       inkscape:collect="always"
       id="linearGradient1188">
      <stop
         style="stop-color:#000000;stop-opacity:1;"
         offset="0"
         id="stop1184" />
      <stop
         style="stop-color:#000000;stop-opacity:0;"
         offset="1"
         id="stop1186" />
    </linearGradient>
    <linearGradient
       inkscape:collect="always"
       id="linearGradient1055">
      <stop
         style="stop-color:#0e0e0e;stop-opacity:1;"
         offset="0"
         id="stop1051" />
      <stop
         style="stop-color:#0e0e0e;stop-opacity:0;"
         offset="1"
         id="stop1053" />
    </linearGradient>
    <linearGradient
       inkscape:collect="always"
       xlink:href="#linearGradient1055"
       id="linearGradient1057"
       x1="254.86177"
       y1="20.28834"
       x2="254.86177"
       y2="406.52533"
       gradientUnits="userSpaceOnUse" />
    <linearGradient
       inkscape:collect="always"
       xlink:href="#linearGradient1188"
       id="linearGradient1190"
       x1="169.04343"
       y1="-208.16434"
       x2="169.04343"
       y2="438.34735"
       gradientUnits="userSpaceOnUse" />
    <linearGradient
       inkscape:collect="always"
       xlink:href="#linearGradient1286"
       id="linearGradient1288"
       x1="122.22521"
       y1="-22.846794"
       x2="122.22521"
       y2="453.05112"
       gradientUnits="userSpaceOnUse" />
  </defs>
  <sodipodi:namedview
     pagecolor="#ffffff"
     bordercolor="#666666"
     borderopacity="1"
     objecttolerance="10"
     gridtolerance="10"
     guidetolerance="10"
     inkscape:pageopacity="0"
     inkscape:pageshadow="2"
     inkscape:window-width="1920"
     inkscape:window-height="1024"
     id="namedview44"
     showgrid="false"
     inkscape:zoom="0.22167969"
     inkscape:cx="-1667.7385"
     inkscape:cy="1021.0726"
     inkscape:window-x="0"
     inkscape:window-y="24"
     inkscape:window-maximized="1"
     inkscape:current-layer="svg42"
     inkscape:document-rotation="0"
     showguides="false" />
  <clipPath
     id="a">
    <rect
       height="417"
       ry="60.628601"
       width="416"
       x="51"
       y="54"
       id="rect2" />
  </clipPath>
  <linearGradient
     id="b"
     gradientUnits="userSpaceOnUse"
     x1="-241"
     x2="454"
     y1="73"
     y2="454"
     gradientTransform="translate(0,-142.67604)">
    <stop
       offset="0"
       id="stop5" />
    <stop
       offset="1"
       stop-opacity="0"
       id="stop7" />
  </linearGradient>
  <g
     fill="#96a1ae"
     fill-opacity=".536946"
     id="g40" />
  <rect
     style="opacity:1;fill:#c89a36;stroke-width:11.3386;stroke-linecap:square;stroke-linejoin:round;fill-opacity:1"
     id="rect853"
     width="326.44385"
     height="253.14981"
     x="90.142258"
     y="40.961586"
     rx="30.434893"
     ry="30.434893" />
  <rect
     style="opacity:1;fill:#e1a524;stroke-width:11.3386;stroke-linecap:square;stroke-linejoin:round;fill-opacity:1"
     id="rect855"
     width="392.07767"
     height="264.43729"
     x="57.325344"
     y="105.18517"
     rx="30.434893"
     ry="30.434893" />
  <rect
     style="opacity:1;fill:#f4ac11;stroke-width:8;stroke-linecap:square;stroke-linejoin:round;fill-opacity:1;stroke:none;stroke-opacity:1;stroke-miterlimit:4;stroke-dasharray:none"
     id="rect857"
     width="467.88678"
     height="289.621"
     x="19.420786"
     y="181.5154"
     rx="30.434893"
     ry="30.434893" />
  <path
     id="path1082"
     style="fill:url(#linearGradient1190);fill-opacity:1;stroke-width:7.81825"
     d="M 187.81836 282.5957 C 184.88661 282.5957 181.95502 283.69583 179.43555 285.48242 C 178.59572 286.07795 177.8013 286.74945 177.06836 287.48242 C 176.33542 288.21539 175.66387 289.00974 175.06836 289.84961 C 174.7706 290.26955 174.49205 290.69969 174.23438 291.14062 C 174.23438 291.14062 174.23438 291.14258 174.23438 291.14258 C 172.94654 293.34687 172.18164 295.78954 172.18164 298.23242 C 172.18164 298.72105 172.2123 299.21055 172.27148 299.69727 C 172.33066 300.184 172.41868 300.66743 172.5332 301.14844 C 172.5332 301.14844 172.5332 301.15039 172.5332 301.15039 C 172.64765 301.63078 172.78923 302.10726 172.95508 302.57812 C 173.45332 303.99311 174.17481 305.35492 175.06836 306.61523 C 175.66381 307.45509 176.33561 308.24942 177.06836 308.98242 L 183.9082 315.82227 L 203.45508 345.14258 C 199.67705 345.14258 196.05595 345.81138 192.70312 347.03906 C 192.22415 347.21444 191.74893 347.40179 191.28125 347.59961 C 186.60516 349.57782 182.51053 352.66256 179.32422 356.52344 C 179.00555 356.90957 178.69469 357.30178 178.39453 357.70312 C 177.19349 359.30892 176.14425 361.03406 175.26562 362.85742 C 174.82644 363.76887 174.43084 364.70416 174.08008 365.66211 C 172.85239 369.01494 172.18164 372.63603 172.18164 376.41406 C 172.18164 376.96773 172.19813 377.51786 172.22656 378.06445 C 172.2363 378.25181 172.25455 378.43658 172.26758 378.62305 C 172.29198 378.97231 172.31578 379.32196 172.35156 379.66797 C 172.37768 379.9206 172.41517 380.16911 172.44727 380.41992 C 172.48387 380.70597 172.51627 380.99376 172.56055 381.27734 C 172.593 381.4851 172.6334 381.6901 172.66992 381.89648 C 172.72798 382.22465 172.7853 382.55241 172.85352 382.87695 C 172.89419 383.07049 172.94209 383.26092 172.98633 383.45312 C 173.06 383.77326 173.13338 384.09387 173.2168 384.41016 C 173.27409 384.62736 173.33857 384.84131 173.40039 385.05664 C 173.4822 385.34163 173.56466 385.62661 173.6543 385.9082 C 173.73095 386.14898 173.81419 386.38679 173.89648 386.625 C 173.982 386.87259 174.06668 387.12051 174.1582 387.36523 C 174.25593 387.62654 174.36038 387.88464 174.46484 388.14258 C 174.55402 388.36279 174.64231 388.5831 174.73633 388.80078 C 174.84124 389.0437 174.95165 389.28376 175.0625 389.52344 C 175.17489 389.76644 175.28785 390.00846 175.40625 390.24805 C 175.51497 390.46807 175.62848 390.68528 175.74219 390.90234 C 175.86654 391.1397 175.99282 391.37564 176.12305 391.60938 C 176.2379 391.81553 176.35527 392.0194 176.47461 392.22266 C 176.62497 392.47871 176.77817 392.73305 176.93555 392.98438 C 177.04944 393.16627 177.16569 393.34602 177.2832 393.52539 C 177.44069 393.76578 177.59981 394.00451 177.76367 394.24023 C 177.90124 394.43813 178.04161 394.6336 178.18359 394.82812 C 178.33642 395.03751 178.49253 395.24383 178.65039 395.44922 C 178.81094 395.65812 178.97301 395.86562 179.13867 396.07031 C 179.29433 396.26264 179.45319 396.4521 179.61328 396.64062 C 179.77876 396.83551 179.94511 397.02997 180.11523 397.2207 C 180.29202 397.41888 180.47259 397.61304 180.6543 397.80664 C 180.82234 397.9857 180.98994 398.16478 181.16211 398.33984 C 181.34396 398.52472 181.53043 398.70444 181.7168 398.88477 C 181.84293 399.00683 181.96363 399.13396 182.0918 399.25391 L 253.97461 471.13672 L 421.69727 471.13672 L 265.21484 314.6543 C 261.50103 310.9403 257.52086 307.4935 253.30664 304.3418 C 251.9019 303.29123 250.47138 302.27257 249.01562 301.28906 C 248.28775 300.79731 247.55465 300.3144 246.81445 299.83984 C 245.33405 298.89073 243.82876 297.97628 242.30078 297.09766 C 240.7728 296.21904 239.2217 295.37614 237.64844 294.57031 C 236.07517 293.76448 234.47954 292.99638 232.86328 292.26562 C 228.01452 290.0734 222.97763 288.22328 217.7832 286.74805 C 216.05173 286.2563 214.30241 285.80593 212.53711 285.39844 C 211.65446 285.19469 210.76763 285.00257 209.87695 284.82031 C 208.09561 284.4558 206.30001 284.13424 204.48828 283.85742 C 201.77069 283.44219 199.01974 283.1275 196.24023 282.91602 C 195.31373 282.84552 194.38398 282.78556 193.45117 282.73828 C 191.58555 282.64372 189.70748 282.5957 187.81836 282.5957 z " />
  <path
     id="path894"
     style="fill:url(#linearGradient1057);fill-opacity:1;stroke-width:7.81825"
     d="m 187.81836,220.05078 c -0.48863,0 -0.97813,0.0307 -1.46484,0.0898 -1.46015,0.17754 -2.90309,0.61252 -4.27735,1.25391 -1.83234,0.85519 -3.54194,2.07697 -5.00781,3.54297 -0.57278,0.57282 -1.09505,1.1919 -1.58594,1.83203 -0.13697,0.17863 -0.28419,0.35006 -0.41406,0.5332 -1.78706,2.51993 1.46147,5.65989 1.67969,8.58399 l 0.82617,11.06055 47.58203,42.18554 c -11.65216,-4.22818 -24.2253,-6.53711 -37.33789,-6.53711 -7.81814,0 -15.63672,7.81847 -15.63672,15.63672 0,0.97729 0.12251,1.954 0.35156,2.91602 v 0.002 c 0.11445,0.48039 0.25603,0.95686 0.42188,1.42773 0.14951,0.42461 0.32534,0.84214 0.51367,1.25586 0.0579,0.12732 0.1202,0.25278 0.18164,0.37891 0.144,0.29552 0.29843,0.58673 0.46094,0.875 0.0702,0.12461 0.13741,0.24993 0.21094,0.37305 0.23435,0.3923 0.47982,0.77874 0.74609,1.15429 0.59553,0.83986 1.26704,1.63423 2,2.36719 l 29.10359,39.98741 -2.71687,-3.82725 c -0.51134,0 -1.02008,0.0148 -1.52539,0.0391 -0.15182,0.007 -0.30188,0.0198 -0.45313,0.0293 -0.34585,0.0216 -0.69049,0.0454 -1.0332,0.0781 -0.19562,0.0187 -0.38943,0.0422 -0.58398,0.0645 -0.30402,0.0348 -0.60691,0.0718 -0.90821,0.11523 -0.20265,0.0292 -0.40409,0.0626 -0.60547,0.0957 -0.2798,0.046 -0.55868,0.0951 -0.83593,0.14844 -0.2116,0.0407 -0.42277,0.0839 -0.63282,0.12891 -0.28869,0.0618 -0.57564,0.12756 -0.86133,0.19726 -0.17601,0.043 -0.3525,0.0849 -0.52734,0.13086 -0.36181,0.095 -0.7196,0.1991 -1.07617,0.30664 -0.10515,0.0317 -0.21173,0.059 -0.31641,0.0918 -0.46883,0.14685 -0.93351,0.30261 -1.39258,0.4707 -0.47897,0.17538 -0.95419,0.36273 -1.42187,0.56055 -0.52732,0.22304 -1.04457,0.46417 -1.55664,0.71484 -0.18026,0.0883 -0.35687,0.18183 -0.53516,0.27344 -0.34745,0.17849 -0.6915,0.36177 -1.03125,0.55273 -0.17637,0.0992 -0.35115,0.20027 -0.52539,0.30274 -0.36244,0.21308 -0.71936,0.43308 -1.07226,0.66016 -0.12954,0.0834 -0.26046,0.16477 -0.38867,0.25 -0.48455,0.322 -0.96269,0.65415 -1.42774,1.00195 -0.47024,0.35168 -0.92769,0.7187 -1.37695,1.0957 -0.0983,0.0825 -0.19375,0.16826 -0.29102,0.25195 -0.34474,0.29656 -0.68225,0.60103 -1.01367,0.91211 -0.12359,0.11603 -0.24549,0.23357 -0.36719,0.35157 -0.30348,0.29423 -0.60118,0.59416 -0.89258,0.90039 -0.11371,0.11952 -0.228,0.23807 -0.33984,0.35937 -0.39003,0.42301 -0.77218,0.8528 -1.13867,1.29688 -1.59332,1.93065 -2.96063,4.05536 -4.0586,6.33398 -0.43918,0.91145 -0.83478,1.84674 -1.18554,2.80469 -0.16318,0.44563 -0.3138,0.89672 -0.45703,1.35156 -0.0559,0.17764 -0.10538,0.35812 -0.15821,0.53711 -0.0848,0.28732 -0.16936,0.57454 -0.24609,0.86524 -0.0509,0.19287 -0.0973,0.38772 -0.14453,0.58203 -0.0688,0.28258 -0.13622,0.56603 -0.19727,0.85156 -0.0419,0.19591 -0.081,0.39259 -0.11914,0.58984 -0.0583,0.30109 -0.11055,0.60411 -0.16015,0.90821 -0.0296,0.18143 -0.0595,0.36245 -0.0859,0.54492 -0.0472,0.32519 -0.0879,0.65211 -0.125,0.98047 -0.0183,0.16273 -0.0388,0.32479 -0.0547,0.48828 -0.0363,0.37437 -0.063,0.75078 -0.0859,1.1289 -0.008,0.13227 -0.019,0.26379 -0.0254,0.39649 -0.0243,0.50595 -0.0391,1.01535 -0.0391,1.52734 0,0.55367 0.0165,1.1038 0.0449,1.65039 0.005,0.0924 0.0139,0.18324 0.0195,0.27539 0.007,0.0942 0.0149,0.18865 0.0215,0.28321 0.005,0.0653 0.011,0.13003 0.0156,0.19531 0.0216,0.28354 0.0393,0.56823 0.0684,0.84961 0.0261,0.25263 0.0636,0.50114 0.0957,0.75195 0.0365,0.28541 0.0691,0.57252 0.11328,0.85547 1e-4,6.4e-4 -1e-4,0.001 0,0.002 0.0324,0.20776 0.0728,0.41276 0.10937,0.61914 0.005,0.0261 0.009,0.052 0.0137,0.0781 0.0542,0.30184 0.10713,0.60357 0.16993,0.90234 0.0182,0.0864 0.0397,0.17163 0.0586,0.25782 0.0249,0.106 0.0498,0.2121 0.0742,0.31835 0.001,0.005 0.003,0.0104 0.004,0.0156 0.0722,0.31282 0.14314,0.6264 0.22461,0.93555 5.2e-4,0.002 0.001,0.004 0.002,0.006 0.0573,0.2172 0.12177,0.43115 0.18359,0.64648 0.003,0.0105 0.007,0.0207 0.01,0.0312 0.0791,0.27439 0.1578,0.54908 0.24414,0.82031 0.0767,0.24078 0.15989,0.47859 0.24218,0.7168 0.0855,0.24759 0.1702,0.49551 0.26172,0.74023 0.0977,0.26131 0.20218,0.51941 0.30664,0.77735 0.0879,0.21695 0.17503,0.43394 0.26758,0.64844 0.001,0.003 0.003,0.007 0.004,0.01 0.10491,0.24292 0.21532,0.48298 0.32617,0.72266 0.002,0.005 0.005,0.0103 0.008,0.0156 0.10738,0.23183 0.21528,0.4627 0.32813,0.69141 0.003,0.006 0.005,0.0118 0.008,0.0176 0.10872,0.22002 0.22223,0.43723 0.33594,0.65429 0.003,0.005 0.005,0.0105 0.008,0.0156 0.12178,0.23212 0.24565,0.46276 0.37305,0.69141 0.0574,0.10298 0.11727,0.20437 0.17578,0.30664 0.0586,0.10214 0.11611,0.20501 0.17578,0.30664 0.001,0.002 0.003,0.004 0.004,0.006 0.14804,0.25197 0.29829,0.5026 0.45312,0.75 0.001,0.002 0.003,0.004 0.004,0.006 0.11389,0.18189 0.23014,0.36164 0.34765,0.54101 0.14896,0.22737 0.30041,0.45258 0.45508,0.67578 0.009,0.0128 0.0165,0.0263 0.0254,0.0391 0.13757,0.1979 0.27794,0.39337 0.41992,0.58789 0.15283,0.20938 0.30894,0.41571 0.4668,0.6211 0.16055,0.2089 0.32262,0.4164 0.48828,0.62109 0.15509,0.19162 0.31318,0.38053 0.47266,0.56836 5.9e-4,7e-4 0.001,0.001 0.002,0.002 0.16548,0.19489 0.33183,0.38935 0.50195,0.58008 0.002,0.002 0.004,0.004 0.006,0.006 0.1704,0.19091 0.34457,0.3778 0.51953,0.56446 0.005,0.005 0.009,0.0106 0.0137,0.0156 0.16804,0.17906 0.33564,0.35814 0.50781,0.5332 0.005,0.005 0.0104,0.0104 0.0156,0.0156 0.17681,0.1795 0.35799,0.35409 0.53907,0.5293 6.6e-4,6.4e-4 0.001,0.001 0.002,0.002 0.12541,0.12147 0.24555,0.24787 0.37305,0.36719 l 71.88281,71.88281 h 202.89844 c 14.51189,0 26.58063,-10.05956 29.66406,-23.61133 l -177.0957,-177.0957 v -0.002 c -1.94473,-1.94472 -3.93703,-3.84313 -5.97266,-5.69335 l -0.002,-0.002 c -1.01749,-0.92478 -2.04641,-1.83778 -3.08594,-2.73828 l -0.002,-0.002 c -2.08047,-1.80218 -4.20311,-3.55366 -6.36914,-5.25586 -1.08261,-0.85078 -2.17599,-1.69049 -3.2793,-2.51563 h -0.002 c -1.10331,-0.82512 -2.21629,-1.63848 -3.33985,-2.4375 h -0.002 c -1.124,-0.79931 -2.25658,-1.58467 -3.40039,-2.35742 -1.84782,-1.24836 -3.72896,-2.45337 -5.62695,-3.63086 -0.45128,-0.27996 -0.89752,-0.56786 -1.35157,-0.84375 h -0.002 c -0.43893,-0.2667 -0.88468,-0.52228 -1.32617,-0.78515 -1.9365,-1.15302 -3.89035,-2.27734 -5.875,-3.35547 -1.21806,-0.6617 -2.44603,-1.31047 -3.68164,-1.94336 h -0.002 c -1.23561,-0.63288 -2.47971,-1.25184 -3.73242,-1.85547 h -0.002 c -5.01222,-2.41515 -10.1598,-4.59449 -15.42774,-6.52344 l -0.002,-0.002 c -2.63438,-0.96458 -5.2973,-1.86554 -7.99023,-2.70313 -2.69293,-0.83759 -5.41424,-1.61136 -8.16211,-2.31836 -8.24362,-2.12099 -16.72711,-3.64652 -25.40039,-4.52734 -2.8911,-0.29361 -5.80275,-0.51546 -8.73438,-0.66406 -2.93163,-0.14861 -5.883,-0.22266 -8.85156,-0.22266 z"
     sodipodi:nodetypes="scsssccccssccsssssssccssssssssssssssssssscsssssssssssssssssssssssscscssscscscscscscssssscssssscscscscssssssscscssssscccscccccccsccccssccssccccccsssss" />
  <path
     id="path1235"
     style="fill:url(#linearGradient1288);fill-opacity:1;stroke-width:7.81825"
     d="M 203.45508 345.14258 C 199.67705 345.14258 196.05595 345.81138 192.70312 347.03906 C 192.22415 347.21444 191.74893 347.40179 191.28125 347.59961 C 186.60516 349.57782 182.51053 352.66256 179.32422 356.52344 C 179.00555 356.90957 178.69469 357.30178 178.39453 357.70312 C 177.19349 359.30892 176.14425 361.03406 175.26562 362.85742 C 174.82644 363.76887 174.43084 364.70416 174.08008 365.66211 C 172.85239 369.01494 172.18164 372.63603 172.18164 376.41406 C 172.18164 376.96773 172.19813 377.51786 172.22656 378.06445 C 172.2363 378.25181 172.25455 378.43658 172.26758 378.62305 C 172.29198 378.97231 172.31578 379.32196 172.35156 379.66797 C 172.37768 379.9206 172.41517 380.16911 172.44727 380.41992 C 172.48387 380.70597 172.51627 380.99376 172.56055 381.27734 C 172.593 381.4851 172.6334 381.6901 172.66992 381.89648 C 172.72798 382.22465 172.7853 382.55241 172.85352 382.87695 C 172.89419 383.07049 172.94209 383.26092 172.98633 383.45312 C 173.06 383.77326 173.13338 384.09387 173.2168 384.41016 C 173.27409 384.62736 173.33857 384.84131 173.40039 385.05664 C 173.4822 385.34163 173.56466 385.62661 173.6543 385.9082 C 173.73095 386.14898 173.81419 386.38679 173.89648 386.625 C 173.982 386.87259 174.06668 387.12051 174.1582 387.36523 C 174.25593 387.62654 174.36038 387.88464 174.46484 388.14258 C 174.55402 388.36279 174.64231 388.5831 174.73633 388.80078 C 174.84124 389.0437 174.95165 389.28376 175.0625 389.52344 C 175.17489 389.76644 175.28785 390.00846 175.40625 390.24805 C 175.51497 390.46807 175.62848 390.68528 175.74219 390.90234 C 175.86654 391.1397 175.99282 391.37564 176.12305 391.60938 C 176.2379 391.81553 176.35527 392.0194 176.47461 392.22266 C 176.62497 392.47871 176.77817 392.73305 176.93555 392.98438 C 177.04944 393.16627 177.16569 393.34602 177.2832 393.52539 C 177.44069 393.76578 177.59981 394.00451 177.76367 394.24023 C 177.90124 394.43813 178.04161 394.6336 178.18359 394.82812 C 178.33642 395.03751 178.49253 395.24383 178.65039 395.44922 C 178.81094 395.65812 178.97301 395.86562 179.13867 396.07031 C 179.29433 396.26264 179.45319 396.4521 179.61328 396.64062 C 179.77876 396.83551 179.94511 397.02997 180.11523 397.2207 C 180.29202 397.41888 180.47259 397.61304 180.6543 397.80664 C 180.82234 397.9857 180.98994 398.16478 181.16211 398.33984 C 181.34396 398.52472 181.53043 398.70444 181.7168 398.88477 C 181.84293 399.00683 181.96363 399.13396 182.0918 399.25391 L 253.97461 471.13672 L 342.39258 471.13672 L 226.04883 354.79297 C 225.96647 354.70694 225.87825 354.6261 225.79492 354.54102 C 225.61808 354.36044 225.43895 354.18212 225.25781 354.00586 C 225.08363 353.83636 224.90855 353.66739 224.73047 353.50195 C 224.52579 353.31181 224.31715 353.12607 224.10742 352.94141 C 223.93729 352.7916 223.76714 352.64223 223.59375 352.49609 C 223.37998 352.31592 223.16197 352.14129 222.94336 351.9668 C 222.76141 351.82156 222.57976 351.67638 222.39453 351.53516 C 222.18288 351.37379 221.96779 351.21658 221.75195 351.06055 C 221.55325 350.9169 221.35452 350.77382 221.15234 350.63477 C 220.94313 350.49086 220.73042 350.35179 220.51758 350.21289 C 220.293 350.06634 220.06837 349.92018 219.83984 349.7793 C 219.64459 349.65892 219.44612 349.54391 219.24805 349.42773 C 219.01377 349.29034 218.78109 349.15095 218.54297 349.01953 C 218.32246 348.89782 218.09872 348.78252 217.875 348.66602 C 217.63988 348.54358 217.40459 348.42128 217.16602 348.30469 C 216.95336 348.20077 216.73681 348.10311 216.52148 348.00391 C 216.27249 347.88919 216.02395 347.77432 215.77148 347.66602 C 215.52502 347.56028 215.27507 347.46086 215.02539 347.36133 C 214.80569 347.27375 214.58735 347.18427 214.36523 347.10156 C 214.10978 347.00643 213.85036 346.92063 213.5918 346.83203 C 213.3455 346.74765 213.10059 346.66039 212.85156 346.58203 C 212.64825 346.51805 212.44141 346.46226 212.23633 346.40234 C 211.94219 346.31641 211.64922 346.22784 211.35156 346.15039 C 211.07832 346.07928 210.80149 346.01893 210.52539 345.95508 C 210.30591 345.90433 210.08841 345.84884 209.86719 345.80273 C 209.5076 345.72779 209.1433 345.66404 208.7793 345.60156 C 208.62019 345.57426 208.46265 345.54247 208.30273 345.51758 C 207.92911 345.45941 207.55171 345.41395 207.17383 345.36914 C 207.01844 345.35071 206.86506 345.32669 206.70898 345.31055 C 206.35199 345.27363 205.99132 345.25137 205.63086 345.22656 C 205.44694 345.2139 205.26486 345.19501 205.08008 345.18555 C 204.54163 345.15797 204.00038 345.14258 203.45508 345.14258 z " />
  <path
     d="m 172.18198,235.68675 c 0,7.81827 7.81827,15.63641 15.63641,15.63641 77.72193,0 140.72835,63.00642 140.72835,140.72835 0,7.81814 7.09064,15.63641 15.63641,15.63641 7.81825,0 15.63652,-7.81827 15.63652,-15.63641 0,-94.99157 -77.0073,-172.00128 -172.00128,-172.00128 -7.81814,0 -15.63641,7.81827 -15.63641,15.63652 z m 0,62.54585 c 0,7.81827 7.81827,15.63654 15.63641,15.63654 43.1794,-1.3e-4 78.18237,35.00297 78.18237,78.18237 0,7.81814 7.81827,15.63641 15.63654,15.63641 7.81825,0 15.63639,-7.81827 15.63639,-15.63641 0,-60.4506 -49.0047,-109.4553 -109.4553,-109.4553 -7.81814,0 -15.63641,7.81814 -15.63641,15.63639 z m 31.27293,46.90947 c -17.27134,0 -31.27293,14.00172 -31.27293,31.27292 0,17.27049 14.00244,31.27293 31.27293,31.27293 17.2712,0 31.27292,-14.00159 31.27292,-31.27293 0,-17.2712 -14.00172,-31.27292 -31.27292,-31.27292 z"
     fill="#ffffff"
     id="path8"
     style="fill:#ffffff;fill-opacity:0.992157;stroke-width:7.81825" />
</svg>
