<?xml version="1.0" encoding="UTF-8" standalone="no"?>
<svg
   xmlns:dc="http://purl.org/dc/elements/1.1/"
   xmlns:cc="http://creativecommons.org/ns#"
   xmlns:rdf="http://www.w3.org/1999/02/22-rdf-syntax-ns#"
   xmlns:svg="http://www.w3.org/2000/svg"
   xmlns="http://www.w3.org/2000/svg"
   xmlns:sodipodi="http://sodipodi.sourceforge.net/DTD/sodipodi-0.dtd"
   xmlns:inkscape="http://www.inkscape.org/namespaces/inkscape"
   version="1.1"
   id="Capa_1"
   x="0px"
   y="0px"
   viewBox="0 0 512 512"
   style="enable-background:new 0 0 512 512;"
   xml:space="preserve"
   sodipodi:docname="deepin-voice-recorder.svg"
   inkscape:version="1.0.2 (e86c870879, 2021-01-15)"><metadata
   id="metadata142"><rdf:RDF><cc:Work
       rdf:about=""><dc:format>image/svg+xml</dc:format><dc:type
         rdf:resource="http://purl.org/dc/dcmitype/StillImage" /><dc:title></dc:title></cc:Work></rdf:RDF></metadata><defs
   id="defs140" /><sodipodi:namedview
   pagecolor="#ffffff"
   bordercolor="#666666"
   borderopacity="1"
   objecttolerance="10"
   gridtolerance="10"
   guidetolerance="10"
   inkscape:pageopacity="0"
   inkscape:pageshadow="2"
   inkscape:window-width="1920"
   inkscape:window-height="1028"
   id="namedview138"
   showgrid="false"
   inkscape:zoom="0.88671875"
   inkscape:cx="74.047044"
   inkscape:cy="402.61288"
   inkscape:window-x="0"
   inkscape:window-y="24"
   inkscape:window-maximized="1"
   inkscape:current-layer="Capa_1" />
<linearGradient
   id="SVGID_1_"
   gradientUnits="userSpaceOnUse"
   x1="275.8986"
   y1="219.3565"
   x2="443.4486"
   y2="219.3565"
   gradientTransform="matrix(1.0039 0 0 -1.0039 0.1922 516.5609)">
	<stop
   offset="0"
   style="stop-color:#654E48"
   id="stop2" />
	<stop
   offset="0.445"
   style="stop-color:#5F4843"
   id="stop4" />
	<stop
   offset="1"
   style="stop-color:#503837"
   id="stop6" />
</linearGradient>
<path
   style="fill:#c1635a;fill-opacity:1"
   d="M268.972,425.604h-25.943c-89.997,0-163.215-73.218-163.215-163.217v-52.369  c0-23.674,19.259-42.934,42.932-42.934h266.509c23.672,0,42.932,19.259,42.932,42.934v52.369  C432.186,352.386,358.968,425.604,268.972,425.604z M122.745,187.616c-12.351,0-22.402,10.05-22.402,22.403v52.369  c0,78.677,64.008,142.685,142.684,142.685h25.943c78.677,0,142.684-64.009,142.684-142.685v-52.369  c0-12.353-10.05-22.403-22.401-22.403H122.745z"
   id="path9" />
<linearGradient
   id="SVGID_2_"
   gradientUnits="userSpaceOnUse"
   x1="222.8686"
   y1="333.715"
   x2="398.1086"
   y2="333.715"
   gradientTransform="matrix(1.0039 0 0 -1.0039 0.1922 516.5609)">
	<stop
   offset="0"
   style="stop-color:#E2EDF2"
   id="stop11" />
	<stop
   offset="1"
   style="stop-color:#9FC7E2"
   id="stop13" />
</linearGradient>
<path
   style="fill:#97b1b8;fill-opacity:1"
   d="M348.195,141.564c-2.573,2.573-4.174,6.132-4.174,10.059c0,7.857,6.378,14.221,14.221,14.221  h18.888c6.556,0,11.825,5.53,11.387,12.182c-0.397,6.077-5.707,10.662-11.785,10.662H358.24c-3.914,0-7.473,1.601-10.046,4.174  c-2.573,2.573-4.174,6.132-4.174,10.046c0,7.857,6.378,14.221,14.221,14.221h18.875c6.31,0,11.429,5.119,11.429,11.429v0.014  c0,6.31-5.119,11.415-11.415,11.415h-18.888c-2.943,0-5.68,0.904-7.952,2.437c-0.753,0.506-1.451,1.081-2.094,1.725  c-2.778,2.779-4.421,6.72-4.147,11.018c0.506,7.556,7.117,13.249,14.686,13.249h14.317c7.624,0,13.112,7.35,10.963,14.658  c-0.206,0.712-0.425,1.424-0.644,2.135c-0.26,0.807-0.52,1.601-0.794,2.395c-0.452,1.314-0.917,2.6-1.41,3.887  c-0.629,1.656-1.314,3.299-2.026,4.913c-0.205,0.466-0.411,0.917-0.615,1.368c-0.629,1.396-1.3,2.792-1.998,4.161  c-0.233,0.466-0.479,0.931-0.726,1.396c-0.466,0.904-0.958,1.807-1.465,2.697c-0.301,0.534-0.602,1.081-0.917,1.601  c-0.369,0.643-0.739,1.273-1.136,1.902c-1.382,2.272-2.847,4.49-4.38,6.652c-0.411,0.575-0.835,1.164-1.259,1.725  c-1.547,2.08-3.161,4.106-4.832,6.077c-0.355,0.411-0.712,0.821-1.067,1.232c-4.448,5.037-9.349,9.691-14.618,13.851  c-0.411,0.328-0.821,0.643-1.232,0.958c-0.466,0.355-0.931,0.712-1.396,1.054c-0.629,0.479-1.286,0.958-1.93,1.409  c-0.643,0.466-1.286,0.904-1.93,1.341c-2.437,1.656-4.927,3.217-7.486,4.667c-0.52,0.301-1.04,0.588-1.56,0.876  c-3.066,1.684-6.214,3.23-9.444,4.612c-0.561,0.246-1.122,0.479-1.698,0.712c-0.685,0.287-1.382,0.561-2.067,0.835  c-1.122,0.438-2.245,0.862-3.394,1.259c-0.972,0.342-1.958,0.671-2.957,0.986c-0.685,0.219-1.382,0.438-2.067,0.643  c-0.082,0.027-0.178,0.055-0.26,0.082c-0.52,0.151-1.04,0.301-1.574,0.452c-0.753,0.206-1.506,0.411-2.272,0.602  c-0.848,0.219-1.698,0.438-2.559,0.629c-1.054,0.246-2.108,0.479-3.161,0.685c-0.575,0.123-1.149,0.233-1.738,0.328  c-0.561,0.109-1.136,0.219-1.711,0.301c-0.109,0.027-0.233,0.055-0.355,0.068c-0.685,0.109-1.355,0.219-2.039,0.315  c-0.767,0.123-1.519,0.219-2.286,0.315c-0.342,0.041-0.685,0.082-1.026,0.123c-0.534,0.068-1.067,0.123-1.601,0.178  c-1.067,0.109-2.135,0.206-3.217,0.274c-0.807,0.068-1.628,0.109-2.45,0.151c-0.904,0.054-1.82,0.082-2.751,0.109  c-0.986,0.027-1.985,0.041-2.984,0.041h-41.964c-0.999,0-1.998-0.013-2.984-0.041c-0.931-0.027-1.847-0.055-2.751-0.109  c-0.821-0.041-1.642-0.082-2.45-0.151c-1.081-0.068-2.148-0.164-3.217-0.274c-0.534-0.055-1.067-0.109-1.601-0.178  c-0.342-0.041-0.685-0.082-1.027-0.123c-0.766-0.096-1.519-0.192-2.286-0.315c-0.685-0.096-1.355-0.206-2.039-0.315  c-0.123-0.014-0.246-0.041-0.355-0.068c-0.574-0.082-1.149-0.192-1.711-0.301c-0.588-0.096-1.164-0.206-1.738-0.328  c-1.054-0.206-2.108-0.438-3.161-0.685c-0.862-0.192-1.711-0.411-2.559-0.629c-0.767-0.192-1.519-0.397-2.272-0.602  c-0.534-0.151-1.054-0.301-1.574-0.452c-0.082-0.027-0.178-0.055-0.26-0.082c-0.685-0.206-1.382-0.425-2.067-0.643  c-0.999-0.315-1.985-0.643-2.957-0.986c-1.136-0.397-2.272-0.821-3.394-1.259c-0.685-0.274-1.382-0.547-2.067-0.835  c-0.575-0.233-1.136-0.466-1.698-0.712c-3.23-1.382-6.378-2.929-9.444-4.612c-0.52-0.287-1.04-0.575-1.56-0.876  c-2.559-1.451-5.051-3.011-7.486-4.667c-0.644-0.438-1.287-0.876-1.93-1.341c-0.644-0.452-1.3-0.931-1.93-1.409  c-0.466-0.342-0.931-0.698-1.396-1.054c-0.411-0.315-0.821-0.629-1.232-0.958c-5.27-4.16-10.17-8.814-14.618-13.851  c-0.355-0.411-0.712-0.821-1.067-1.232c-1.67-1.971-3.285-3.997-4.832-6.077c-0.425-0.561-0.848-1.15-1.259-1.725  c-1.533-2.162-2.998-4.38-4.38-6.652c-0.397-0.629-0.767-1.259-1.136-1.902c-0.315-0.52-0.615-1.067-0.917-1.601  c-0.507-0.889-0.999-1.793-1.465-2.697c-0.246-0.466-0.493-0.931-0.726-1.396c-0.698-1.368-1.368-2.765-1.998-4.161  c-0.205-0.452-0.411-0.904-0.615-1.368c-0.712-1.615-1.396-3.258-2.026-4.913c-0.493-1.287-0.972-2.573-1.41-3.887  c-0.274-0.794-0.534-1.588-0.794-2.395c-0.219-0.712-0.438-1.424-0.644-2.135c-2.148-7.309,3.339-14.658,10.963-14.658h14.809  c3.914,0,7.473-1.588,10.046-4.161c2.573-2.573,4.174-6.132,4.174-10.046c0-4.9-2.491-9.225-6.268-11.784  c-2.272-1.533-5.01-2.437-7.952-2.437h-18.888c-6.296,0-11.415-5.105-11.415-11.415v-0.014c0-6.31,5.119-11.429,11.415-11.429  h18.888c3.914,0,7.473-1.588,10.046-4.161c2.778-2.779,4.421-6.706,4.147-11.018c-0.506-7.556-7.131-13.263-14.699-13.263h-18.382  c-6.556,0-11.825-5.53-11.387-12.182c0.397-6.064,5.707-10.662,11.785-10.662h18.491c3.914,0,7.473-1.588,10.046-4.161  c2.573-2.573,4.174-6.132,4.174-10.06c0-7.857-6.378-14.221-14.221-14.221h-18.875c-6.31,0-11.429-5.105-11.429-11.415v-25.472  c0-35.285,22.391-65.327,53.735-76.715c7.24-2.641,13.632-7.459,17.807-13.947C198.803,3.928,205.455,0,213.037,0  c10.991,0,20.037,8.253,21.31,18.888h0.342C235.976,8.253,245.009,0,256,0s20.024,8.253,21.31,18.888h0.342  C278.926,8.253,287.973,0,298.963,0c7.583,0,14.235,3.928,18.039,9.854c4.174,6.487,10.566,11.305,17.807,13.947  c31.342,11.387,53.735,41.43,53.735,76.715v25.472c0,6.31-5.119,11.415-11.415,11.415h-18.888  C354.327,137.403,350.768,138.99,348.195,141.564z"
   id="path16" />
<linearGradient
   id="SVGID_3_"
   gradientUnits="userSpaceOnUse"
   x1="275.6202"
   y1="272.0625"
   x2="-0.4698"
   y2="247.0225"
   gradientTransform="matrix(1.0039 0 0 -1.0039 0.1922 516.5609)">
	<stop
   offset="0"
   style="stop-color:#654E48"
   id="stop18" />
	<stop
   offset="0.445"
   style="stop-color:#5F4843"
   id="stop20" />
	<stop
   offset="1"
   style="stop-color:#503837"
   id="stop22" />
</linearGradient>
<path
   style="fill:#c1635a;fill-opacity:1"
   d="M178.555,268.424h-40.881c-7.853,0-14.22-6.366-14.22-14.22l0,0  c0-7.853,6.366-14.22,14.22-14.22h40.881c7.853,0,14.22,6.366,14.22,14.22l0,0C192.775,262.057,186.409,268.424,178.555,268.424z"
   id="path25" />
<linearGradient
   id="SVGID_4_"
   gradientUnits="userSpaceOnUse"
   x1="275.62"
   y1="323.1537"
   x2="-0.47"
   y2="298.1038"
   gradientTransform="matrix(1.0039 0 0 -1.0039 0.1922 516.5609)">
	<stop
   offset="0"
   style="stop-color:#654E48"
   id="stop27" />
	<stop
   offset="0.445"
   style="stop-color:#5F4843"
   id="stop29" />
	<stop
   offset="1"
   style="stop-color:#503837"
   id="stop31" />
</linearGradient>
<path
   style="fill:#c1635a;fill-opacity:1"
   d="M178.555,217.136h-40.881c-7.853,0-14.22-6.366-14.22-14.22l0,0  c0-7.853,6.366-14.22,14.22-14.22h40.881c7.853,0,14.22,6.366,14.22,14.22l0,0C192.775,210.77,186.409,217.136,178.555,217.136z"
   id="path34" />
<linearGradient
   id="SVGID_5_"
   gradientUnits="userSpaceOnUse"
   x1="275.6199"
   y1="374.2355"
   x2="-0.4701"
   y2="349.1955"
   gradientTransform="matrix(1.0039 0 0 -1.0039 0.1922 516.5609)">
	<stop
   offset="0"
   style="stop-color:#654E48"
   id="stop36" />
	<stop
   offset="0.445"
   style="stop-color:#5F4843"
   id="stop38" />
	<stop
   offset="1"
   style="stop-color:#503837"
   id="stop40" />
</linearGradient>
<path
   style="fill:#c1635a;fill-opacity:1"
   d="M178.555,165.85h-40.881c-7.853,0-14.22-6.366-14.22-14.22l0,0  c0-7.853,6.366-14.22,14.22-14.22h40.881c7.853,0,14.22,6.366,14.22,14.22l0,0C192.775,159.484,186.409,165.85,178.555,165.85z"
   id="path43" />
<linearGradient
   id="SVGID_6_"
   gradientUnits="userSpaceOnUse"
   x1="277.2112"
   y1="254.5209"
   x2="1.1211"
   y2="229.4809"
   gradientTransform="matrix(1.0039 0 0 -1.0039 0.1922 516.5609)">
	<stop
   offset="0"
   style="stop-color:#654E48"
   id="stop45" />
	<stop
   offset="0.445"
   style="stop-color:#5F4843"
   id="stop47" />
	<stop
   offset="1"
   style="stop-color:#503837"
   id="stop49" />
</linearGradient>
<path
   style="fill:#c1635a;fill-opacity:1"
   d="M374.324,268.424h-40.881c-7.853,0-14.22-6.366-14.22-14.22l0,0  c0-7.853,6.366-14.22,14.22-14.22h40.881c7.853,0,14.22,6.366,14.22,14.22l0,0C388.544,262.057,382.178,268.424,374.324,268.424z"
   id="path52" />
<linearGradient
   id="SVGID_7_"
   gradientUnits="userSpaceOnUse"
   x1="277.2122"
   y1="305.6053"
   x2="1.1222"
   y2="280.5552"
   gradientTransform="matrix(1.0039 0 0 -1.0039 0.1922 516.5609)">
	<stop
   offset="0"
   style="stop-color:#654E48"
   id="stop54" />
	<stop
   offset="0.445"
   style="stop-color:#5F4843"
   id="stop56" />
	<stop
   offset="1"
   style="stop-color:#503837"
   id="stop58" />
</linearGradient>
<path
   style="fill:#c1635a;fill-opacity:1"
   d="M374.324,217.136h-40.881c-7.853,0-14.22-6.366-14.22-14.22l0,0  c0-7.853,6.366-14.22,14.22-14.22h40.881c7.853,0,14.22,6.366,14.22,14.22l0,0C388.544,210.77,382.178,217.136,374.324,217.136z"
   id="path61" />
<linearGradient
   id="SVGID_8_"
   gradientUnits="userSpaceOnUse"
   x1="277.2109"
   y1="356.6938"
   x2="1.1209"
   y2="331.6538"
   gradientTransform="matrix(1.0039 0 0 -1.0039 0.1922 516.5609)">
	<stop
   offset="0"
   style="stop-color:#654E48"
   id="stop63" />
	<stop
   offset="0.445"
   style="stop-color:#5F4843"
   id="stop65" />
	<stop
   offset="1"
   style="stop-color:#503837"
   id="stop67" />
</linearGradient>
<path
   style="fill:#c1635a;fill-opacity:1"
   d="M374.324,165.85h-40.881c-7.853,0-14.22-6.366-14.22-14.22l0,0  c0-7.853,6.366-14.22,14.22-14.22h40.881c7.853,0,14.22,6.366,14.22,14.22l0,0C388.544,159.484,382.178,165.85,374.324,165.85z"
   id="path70" />
<linearGradient
   id="SVGID_9_"
   gradientUnits="userSpaceOnUse"
   x1="254.8103"
   y1="245.473"
   x2="254.8103"
   y2="139.243"
   gradientTransform="matrix(1.0039 0 0 -1.0039 0.1922 516.5609)">
	<stop
   offset="0"
   style="stop-color:#9FC7E2;stop-opacity:0"
   id="stop72" />
	<stop
   offset="1"
   style="stop-color:#9FC7E2"
   id="stop74" />
</linearGradient>

<linearGradient
   id="SVGID_10_"
   gradientUnits="userSpaceOnUse"
   x1="278.0486"
   y1="318.2735"
   x2="235.65509"
   y2="318.2735"
   gradientTransform="matrix(1.0039 0 0 -1.0039 0.1922 516.5609)">
	<stop
   offset="0"
   style="stop-color:#E2EDF2"
   id="stop79" />
	<stop
   offset="1"
   style="stop-color:#dcdcdc;stop-opacity:1"
   id="stop81" />
</linearGradient>
<path
   style="fill:url(#SVGID_10_)"
   d="M233.514,264.497V129.581c0-12.419,10.067-22.486,22.486-22.486l0,0  c12.418,0,22.486,10.067,22.486,22.486v134.916c0,12.419-10.067,22.486-22.486,22.486l0,0  C243.582,286.983,233.514,276.916,233.514,264.497z"
   id="path84" />
<linearGradient
   id="SVGID_11_"
   gradientUnits="userSpaceOnUse"
   x1="251.4986"
   y1="85.6405"
   x2="296.9186"
   y2="85.6405"
   gradientTransform="matrix(1.0039 0 0 -1.0039 0.1922 516.5609)">
	<stop
   offset="0"
   style="stop-color:#E2EDF2"
   id="stop86" />
	<stop
   offset="1"
   style="stop-color:#9FC7E2"
   id="stop88" />
</linearGradient>
<path
   style="fill:#869ea4;fill-opacity:1"
   d="M270.574,471.158h-29.148c-10.736,0-19.439-8.703-19.439-19.439v-42.27  c0-10.736,8.703-19.439,19.439-19.439h29.148c10.736,0,19.439,8.703,19.439,19.439v42.271  C290.013,462.455,281.31,471.158,270.574,471.158z"
   id="path91" />
<linearGradient
   id="SVGID_12_"
   gradientUnits="userSpaceOnUse"
   x1="224.94"
   y1="53.3808"
   x2="1.8801"
   y2="24.1408"
   gradientTransform="matrix(1.0039 0 0 -1.0039 0.1922 516.5609)">
	<stop
   offset="0"
   style="stop-color:#E2EDF2"
   id="stop93" />
	<stop
   offset="1"
   style="stop-color:#9FC7E2"
   id="stop95" />
</linearGradient>
<path
   style="fill:#97b1b8;fill-opacity:1"
   d="M339.904,474.657H172.096c-4.047,0-7.328-3.281-7.328-7.328l0,0  c0-14.481,11.739-26.219,26.219-26.219h130.025c14.481,0,26.219,11.739,26.219,26.219l0,0  C347.231,471.376,343.951,474.657,339.904,474.657z"
   id="path98" />
<linearGradient
   id="SVGID_13_"
   gradientUnits="userSpaceOnUse"
   x1="227.7771"
   y1="22.1018"
   x2="4.7171"
   y2="-22.6582"
   gradientTransform="matrix(1.0039 0 0 -1.0039 0.1922 516.5609)">
	<stop
   offset="0"
   style="stop-color:#E2EDF2"
   id="stop100" />
	<stop
   offset="1"
   style="stop-color:#9FC7E2"
   id="stop102" />
</linearGradient>
<path
   style="fill:#97b1b8;fill-opacity:1"
   d="M384.477,512H127.523c-6.197,0-11.221-5.024-11.221-11.221l0,0  c0-22.173,17.975-40.148,40.148-40.148h199.1c22.173,0,40.148,17.975,40.148,40.148l0,0C395.698,506.976,390.674,512,384.477,512z"
   id="path105" />
<g
   id="g107">
</g>
<g
   id="g109">
</g>
<g
   id="g111">
</g>
<g
   id="g113">
</g>
<g
   id="g115">
</g>
<g
   id="g117">
</g>
<g
   id="g119">
</g>
<g
   id="g121">
</g>
<g
   id="g123">
</g>
<g
   id="g125">
</g>
<g
   id="g127">
</g>
<g
   id="g129">
</g>
<g
   id="g131">
</g>
<g
   id="g133">
</g>
<g
   id="g135">
</g>
</svg>
